<svg width="445" height="437" viewBox="0 0 445 437" fill="none" xmlns="http://www.w3.org/2000/svg">
<g clip-path="url(#clip0)">
<path d="M220.301 133.693H217.259C216.289 133.096 215.315 132.505 214.337 131.922C213.731 131.544 213.118 131.182 212.505 130.812C202.379 124.714 192.191 118.867 181.941 113.272C171.7 107.672 161.41 102.333 151.07 97.2555C150.796 97.1382 150.572 96.9287 150.436 96.6636C150.301 96.3984 150.263 96.0942 150.329 95.8039C150.339 95.7659 150.356 95.7298 150.379 95.6972C150.521 95.4268 150.842 95.313 151.312 95.5407C152.581 96.1668 153.856 96.793 155.125 97.4334C165.493 102.599 175.819 108.026 186.103 113.713C196.379 119.398 206.598 125.337 216.76 131.53C216.973 131.658 217.187 131.793 217.401 131.922C218.37 132.512 219.332 133.103 220.301 133.693Z" fill="white"/>
<path d="M301.384 122.551C301.306 125.717 301.114 128.833 300.857 131.922C300.807 132.512 300.757 133.103 300.707 133.693H298.733C298.79 133.103 298.847 132.512 298.897 131.922C299.289 127.46 299.56 122.949 299.574 118.317C299.555 105.475 298.23 92.668 295.619 80.0932C292.844 66.5534 288.892 53.2805 283.811 40.425C278.477 26.8663 272.064 13.7559 264.634 1.21936C264.494 1.01513 264.431 0.76819 264.456 0.522058C264.534 -0.0400561 265.283 -0.210824 265.846 0.322828C265.957 0.427527 266.053 0.547284 266.131 0.678597C267.05 2.23686 267.953 3.79987 268.839 5.36762C275.998 17.9755 282.139 31.1332 287.203 44.7156C292.027 57.6148 295.716 70.9091 298.227 84.4478C300.579 97.0078 301.637 109.775 301.384 122.551Z" fill="white"/>
<path d="M438.779 134.922H6.21392C4.56631 134.923 2.98662 135.577 1.82161 136.74C0.656591 137.904 0.00144726 139.481 0 141.126V433.795C0.00144537 435.44 0.65659 437.018 1.82161 438.181C2.98662 439.344 4.56631 439.998 6.21392 440H438.779C439.677 440 440.565 439.805 441.381 439.429C442.197 439.053 442.921 438.505 443.504 437.823C443.553 437.769 443.598 437.712 443.639 437.652C444.01 437.199 444.31 436.693 444.53 436.15C444.843 435.405 445.002 434.604 445 433.795V141.126C444.998 139.48 444.342 137.902 443.175 136.738C442.009 135.575 440.428 134.921 438.779 134.922ZM443.226 433.795C443.226 434.661 442.971 435.508 442.492 436.229C442.066 436.864 441.488 437.382 440.81 437.737C440.182 438.061 439.485 438.23 438.779 438.228H6.21392C5.03688 438.227 3.90845 437.759 3.07616 436.928C2.24387 436.097 1.77567 434.971 1.77424 433.795V141.126C1.77566 139.951 2.24387 138.824 3.07616 137.993C3.90845 137.162 5.03688 136.695 6.21392 136.693H438.779C439.957 136.693 441.087 137.16 441.921 137.991C442.755 138.822 443.224 139.95 443.226 141.126V433.795Z" fill="#3F3D56"/>
<path d="M444.109 156.789H0.885544V158.563H444.109V156.789Z" fill="#3F3D56"/>
<path d="M15.9853 150.546C18.9287 150.546 21.3147 148.163 21.3147 145.225C21.3147 142.286 18.9287 139.903 15.9853 139.903C13.042 139.903 10.656 142.286 10.656 145.225C10.656 148.163 13.042 150.546 15.9853 150.546Z" fill="#3F3D56"/>
<path d="M31.3072 150.546C34.2505 150.546 36.6365 148.163 36.6365 145.225C36.6365 142.286 34.2505 139.903 31.3072 139.903C28.3639 139.903 25.9779 142.286 25.9779 145.225C25.9779 148.163 28.3639 150.546 31.3072 150.546Z" fill="#3F3D56"/>
<path d="M46.629 150.546C49.5724 150.546 51.9584 148.163 51.9584 145.225C51.9584 142.286 49.5724 139.903 46.629 139.903C43.6857 139.903 41.2997 142.286 41.2997 145.225C41.2997 148.163 43.6857 150.546 46.629 150.546Z" fill="#3F3D56"/>
<path d="M197.381 307.578C192.051 304.114 189.4 296.063 190.706 288.7C192.012 281.337 196.931 274.996 202.827 272.261C205.695 270.97 208.839 270.411 211.977 270.634C215.115 270.856 218.148 271.854 220.804 273.537C226.211 276.838 233.858 278.646 236.425 285.25C238.398 290.326 235.896 300.632 233.24 305.562C230.945 309.822 226.583 311.771 222.486 312.618C217.952 313.541 213.273 313.482 208.765 312.443C204.257 311.404 200.025 309.411 196.355 306.598L197.381 307.578Z" fill="#2F2E41"/>
<path d="M194.601 346.685L190.34 354.021L189.777 354.988L188.957 356.411H176.394L177.242 354.988L179.437 351.296L184.553 342.672L190.347 344.984L194.601 346.685Z" fill="#FFB8B8"/>
<path d="M175.453 356.411L173.159 354.988L172.874 354.81L187.276 328.604C187.895 327.47 188.734 326.47 189.743 325.661C190.752 324.853 191.912 324.252 193.155 323.894C194.724 323.427 196.387 323.366 197.986 323.716C198.92 323.913 199.818 324.249 200.652 324.712C200.995 324.9 201.326 325.109 201.642 325.339C202.86 326.191 203.861 327.317 204.564 328.626C205.401 330.158 205.814 331.885 205.762 333.629C205.709 335.374 205.192 337.073 204.265 338.552L198.713 347.41L193.967 354.988L193.076 356.411H175.453Z" fill="#2F2E41"/>
<path d="M212.456 316.879C222.122 316.879 229.959 309.055 229.959 299.403C229.959 289.752 222.122 281.927 212.456 281.927C202.789 281.927 194.953 289.752 194.953 299.403C194.953 309.055 202.789 316.879 212.456 316.879Z" fill="#FFB8B8"/>
<path d="M230.026 356.411H190.682L190.86 355.906C190.76 355.6 190.668 355.294 190.582 354.988C190.49 354.668 190.411 354.341 190.34 354.021C189.701 351.042 189.703 347.962 190.347 344.984C192.521 334.325 201.193 325.666 201.193 325.666C201.343 325.552 201.493 325.445 201.642 325.339C202.932 324.395 204.332 323.612 205.811 323.005C212.253 320.336 219.009 321.411 223.548 322.791C225.129 323.269 226.675 323.856 228.173 324.549C228.701 324.798 228.986 324.954 228.986 324.954L229.435 338.623L229.976 354.988L230.026 356.411Z" fill="#6C63FF"/>
<path d="M248.227 354.988L245.219 339.719L242.184 324.321C242.057 323.685 241.741 323.102 241.277 322.649C240.813 322.196 240.222 321.893 239.582 321.781L233.226 320.685L227.311 319.668C226.741 319.565 226.153 319.62 225.611 319.827C225.07 320.034 224.596 320.385 224.24 320.842C223.795 321.395 223.551 322.082 223.548 322.791C223.548 323.229 223.638 323.663 223.812 324.065C226.898 331.251 226.955 342.629 226.171 354.988C226.135 355.458 226.107 355.935 226.071 356.411H248.512L248.227 354.988Z" fill="#2F2E41"/>
<path d="M205.811 323.005C205.68 322.487 205.423 322.01 205.061 321.616C204.7 321.222 204.246 320.925 203.74 320.75C203.235 320.575 202.694 320.528 202.166 320.613C201.638 320.699 201.14 320.914 200.716 321.24L197.987 323.716L186.812 333.877C186.464 334.189 186.191 334.576 186.014 335.008C184.753 338.018 182.295 343.959 179.437 351.295C178.974 352.491 178.496 353.722 178.005 354.988C177.833 355.458 177.648 355.935 177.463 356.411H195.877C196.027 355.935 196.176 355.458 196.326 354.988C197.146 352.405 197.944 349.872 198.713 347.41C200.965 340.259 202.996 333.763 204.564 328.626C204.999 327.203 205.395 325.889 205.754 324.684C205.922 324.139 205.941 323.56 205.811 323.005Z" fill="#2F2E41"/>
<path d="M252.36 356.412H253.55L253.386 356.013L252.951 354.988L246.246 339.1L245.219 339.719L236.981 344.693L241.207 354.988L241.792 356.412H248.512H252.36Z" fill="#FFB8B8"/>
<path d="M245.561 326.498C244.654 324.127 242.864 322.198 240.565 321.115C238.266 320.031 235.636 319.877 233.226 320.685C232.918 320.787 232.616 320.906 232.321 321.041C230.633 321.793 229.194 323.01 228.173 324.549C227.757 325.163 227.415 325.825 227.154 326.52C226.692 327.726 226.473 329.011 226.511 330.302C226.549 331.593 226.843 332.864 227.375 334.041L229.435 338.623L236.803 354.988L237.445 356.411H252.36L253.386 356.013L256.051 354.988L256.422 354.846L245.561 326.498Z" fill="#2F2E41"/>
<path d="M226.202 279.332C226.812 279.514 227.466 279.491 228.061 279.265C228.657 279.04 229.161 278.625 229.496 278.084C229.814 277.533 230 276.916 230.042 276.282C230.084 275.647 229.98 275.012 229.737 274.424C229.241 273.251 228.458 272.22 227.46 271.425C226.327 270.402 224.948 269.689 223.457 269.356C222.712 269.196 221.941 269.198 221.197 269.361C220.453 269.524 219.753 269.845 219.144 270.303C218.546 270.775 218.102 271.415 217.871 272.14C217.639 272.866 217.629 273.643 217.843 274.374C218.296 275.687 219.523 276.566 220.749 277.221C223.181 278.517 225.864 279.279 228.615 279.453L226.202 279.332Z" fill="#2F2E41"/>
<path d="M229.607 298.881C226.793 299.269 227.155 297.839 226.028 295.235C224.901 292.632 223.392 289.541 220.564 289.277C218.246 289.061 216.336 290.911 214.459 292.285C211.112 294.734 206.602 295.932 202.722 294.463C198.843 292.995 196.147 288.378 197.619 284.505C198.077 283.435 198.75 282.471 199.597 281.672C200.444 280.873 201.445 280.256 202.541 279.859C204.738 279.079 207.071 278.755 209.398 278.908C214.573 279.073 219.648 280.37 224.266 282.708C227.453 284.325 230.556 286.638 231.765 289.997C232.974 293.356 233.769 298.076 230.312 298.985L229.607 298.881Z" fill="#2F2E41"/>
<path d="M224.764 270.093C223.373 267.676 224.521 264.359 226.797 262.744C229.073 261.128 232.126 260.97 234.841 261.618C237.527 262.293 239.988 263.662 241.977 265.587C243.965 267.511 245.412 269.924 246.172 272.583C247.325 276.811 246.64 281.351 247.616 285.623C248.136 287.9 249.117 290.046 250.5 291.93C251.882 293.814 253.636 295.396 255.654 296.577C257.672 297.759 259.91 298.515 262.232 298.8C264.553 299.086 266.909 298.893 269.153 298.235C272.076 297.378 275.047 295.294 275.334 292.266C275.637 295.743 274.843 299.228 273.063 302.233C271.283 305.238 268.607 307.611 265.409 309.022C261.643 310.59 257.441 310.693 253.362 310.588C250.703 310.52 247.984 310.36 245.532 309.333C243.835 308.561 242.309 307.457 241.045 306.088C239.78 304.72 238.802 303.112 238.168 301.361C236.919 297.841 236.582 294.063 237.188 290.379C237.589 287.512 238.387 284.703 238.611 281.817C238.834 278.932 238.41 275.851 236.629 273.568C234.847 271.285 231.444 270.119 228.911 271.526C227.893 272.091 227.071 273.015 225.965 273.38C224.859 273.745 223.292 273.103 223.392 271.945L224.764 270.093Z" fill="#2F2E41"/>
<path d="M344.203 356.411L344.339 354.988L348.358 313.235C349.675 312.205 351.091 311.307 352.584 310.553C360.857 306.39 368.839 308.383 373.157 310.104C374.302 310.552 375.408 311.092 376.464 311.72L378.816 354.988L378.894 356.411H344.203Z" fill="#6C63FF"/>
<path d="M363.026 302.123C372.692 302.123 380.529 294.299 380.529 284.647C380.529 274.995 372.692 267.171 363.026 267.171C353.359 267.171 345.523 274.995 345.523 284.647C345.523 294.299 353.359 302.123 363.026 302.123Z" fill="#FFB8B8"/>
<path d="M377.227 295.303C378.528 293.934 379.392 292.209 379.708 290.349C380.025 288.488 379.78 286.576 379.005 284.854C378.23 283.133 376.96 281.681 375.356 280.682C373.752 279.684 371.887 279.185 369.997 279.248C367.577 279.328 365.297 280.317 362.987 281.043C359.486 282.232 355.751 282.568 352.094 282.023C348.415 281.452 345.095 279.495 342.818 276.554C340.653 273.582 339.978 269.46 341.507 266.118C343.274 262.259 347.399 260.132 351.28 258.405C352.845 257.622 354.517 257.074 356.242 256.777C357.106 256.634 357.99 256.67 358.839 256.884C359.689 257.098 360.485 257.484 361.178 258.019C362.268 258.956 362.907 260.364 364.094 261.175C365.43 262.089 367.166 262.065 368.777 262.226C372.406 262.589 375.839 264.046 378.618 266.404C381.398 268.763 383.392 271.91 384.337 275.427C385.281 278.945 385.13 282.666 383.905 286.097C382.68 289.527 380.437 292.503 377.476 294.63L377.227 295.303Z" fill="#2F2E41"/>
<path d="M355.192 317.782L352.584 310.553L352.421 310.102C352.344 309.889 352.219 309.695 352.056 309.537C351.893 309.379 351.696 309.259 351.48 309.188C351.264 309.117 351.034 309.096 350.809 309.127C350.584 309.157 350.368 309.239 350.179 309.365L347.218 311.336C347.218 311.336 328.226 311.336 326.701 322.713C326.68 322.891 326.651 323.09 326.63 323.304C326.629 323.313 326.627 323.323 326.623 323.332C326.43 324.079 322.846 337.911 319.767 354.988C319.682 355.458 319.596 355.935 319.511 356.411H360.779V356.411C362.122 339.257 361.371 323.307 355.192 317.782Z" fill="#2F2E41"/>
<path d="M404.42 354.988C402.169 337.47 398.948 323.304 398.948 323.304C398.919 323.09 398.891 322.891 398.869 322.713C397.351 311.335 378.36 311.336 378.36 311.336L375.4 309.366C375.211 309.239 374.995 309.158 374.77 309.128C374.544 309.097 374.315 309.118 374.098 309.189C373.882 309.261 373.685 309.38 373.522 309.539C373.359 309.697 373.234 309.891 373.157 310.105L370.385 317.782C364.207 323.307 363.455 339.257 364.798 356.411L364.799 356.411H404.599C404.541 355.935 404.477 355.458 404.42 354.988Z" fill="#2F2E41"/>
<path d="M70.141 315.1L65.908 354.988L65.7584 356.411H54.3066C54.442 355.949 54.5773 355.472 54.72 354.988C57.9696 343.86 62.395 327.615 61.9172 323.311C61.1691 316.594 66.407 314.352 66.407 314.352L66.7348 314.416L70.141 315.1Z" fill="#6C63FF"/>
<path d="M88.61 302.787C98.2765 302.787 106.113 294.963 106.113 285.311C106.113 275.659 98.2765 267.835 88.61 267.835C78.9434 267.835 71.1071 275.659 71.1071 285.311C71.1071 294.963 78.9434 302.787 88.61 302.787Z" fill="#A0616A"/>
<path d="M111.267 347.944C110.384 349.569 109.661 351.275 109.108 353.039C108.901 353.665 108.701 354.319 108.516 354.988C108.381 355.451 108.26 355.928 108.139 356.411H61.9742C62.0386 355.942 62.0953 355.465 62.1597 354.988C64.5185 336.382 66.4282 317.497 66.7347 314.416C66.7632 314.125 66.7775 313.975 66.7775 313.975C94.4416 299.417 114.63 318.458 114.63 318.458C114.63 318.458 114.659 318.593 114.702 318.856C115.144 321.518 117.395 337.058 111.267 347.944Z" fill="#6C63FF"/>
<path d="M109.108 353.039L106.029 346.45L106.777 320.322L114.702 318.856L114.98 318.807C119.076 321.184 122.245 324.876 123.973 329.28C125.512 333.123 128.441 344.678 130.914 354.988C131.028 355.465 131.142 355.942 131.256 356.411H110.682L110.02 354.988L109.108 353.039Z" fill="#6C63FF"/>
<path d="M137.264 239.008H36.0563C33.8855 239.01 31.8043 239.873 30.2693 241.405C28.7342 242.938 27.8707 245.016 27.868 247.183V348.236C27.8707 350.403 28.7342 352.481 30.2693 354.014C31.8043 355.547 33.8855 356.409 36.0563 356.411H137.264C139.435 356.41 141.517 355.548 143.052 354.015C144.587 352.482 145.45 350.404 145.452 348.236V247.183C145.45 245.015 144.587 242.937 143.052 241.404C141.517 239.871 139.435 239.009 137.264 239.008ZM144.026 348.236C144.025 350.026 143.312 351.743 142.044 353.009C140.776 354.275 139.057 354.987 137.264 354.988H36.0563C34.2635 354.986 32.5449 354.273 31.2772 353.008C30.0095 351.742 29.296 350.026 29.2933 348.236V247.183C29.296 245.393 30.0095 243.677 31.2772 242.412C32.5449 241.146 34.2635 240.434 36.0563 240.431H137.264C139.057 240.432 140.776 241.144 142.044 242.41C143.312 243.676 144.025 245.393 144.026 247.183V348.236ZM65.908 354.988L65.7584 356.411H108.138C108.26 355.927 108.381 355.451 108.516 354.988H65.908Z" fill="#3F3D56"/>
<path d="M273.097 239.008H171.89C169.719 239.01 167.638 239.873 166.103 241.405C164.568 242.938 163.705 245.016 163.702 247.183V348.236C163.705 350.403 164.568 352.481 166.103 354.014C167.638 355.547 169.719 356.409 171.89 356.411H273.097C275.269 356.41 277.35 355.548 278.886 354.015C280.421 352.482 281.284 350.404 281.285 348.236V247.183C281.284 245.015 280.421 242.937 278.886 241.404C277.35 239.871 275.269 239.009 273.097 239.008ZM279.86 348.236C279.859 350.026 279.146 351.743 277.878 353.009C276.61 354.275 274.891 354.987 273.097 354.988H171.89C170.097 354.986 168.379 354.273 167.111 353.008C165.843 351.742 165.13 350.026 165.127 348.236V247.183C165.13 245.393 165.843 243.677 167.111 242.412C168.379 241.146 170.097 240.434 171.89 240.431H273.097C274.891 240.432 276.61 241.144 277.878 242.41C279.146 243.676 279.859 245.393 279.86 247.183V348.236ZM190.582 354.988C190.668 355.294 190.761 355.6 190.86 355.906L190.682 356.411H226.071C226.107 355.935 226.135 355.458 226.171 354.988H190.582Z" fill="#3F3D56"/>
<path d="M408.939 239.008H307.731C305.56 239.009 303.478 239.871 301.943 241.404C300.407 242.937 299.544 245.015 299.543 247.183V348.236C299.544 350.404 300.407 352.482 301.943 354.015C303.478 355.548 305.56 356.41 307.731 356.411H408.939C411.109 356.409 413.191 355.546 414.725 354.014C416.26 352.481 417.124 350.403 417.126 348.236V247.183C417.124 245.016 416.26 242.938 414.725 241.405C413.191 239.873 411.109 239.01 408.939 239.008ZM415.701 348.236C415.699 350.026 414.985 351.742 413.718 353.007C412.45 354.273 410.731 354.986 408.939 354.988H307.731C305.938 354.987 304.219 354.275 302.951 353.009C301.683 351.743 300.97 350.026 300.968 348.236V247.183C300.97 245.393 301.683 243.676 302.951 242.41C304.219 241.144 305.938 240.432 307.731 240.431H408.939C410.731 240.434 412.45 241.146 413.718 242.412C414.985 243.677 415.699 245.393 415.701 247.183V348.236ZM360.886 354.988C360.85 355.458 360.815 355.935 360.779 356.411H391.486C391.543 355.942 391.607 355.465 391.664 354.988H360.886Z" fill="#3F3D56"/>
<path d="M340.081 397.68H104.914C103.402 397.68 101.952 397.081 100.883 396.013C99.8134 394.946 99.2127 393.498 99.2127 391.988C99.2127 390.478 99.8134 389.031 100.883 387.963C101.952 386.896 103.402 386.296 104.914 386.296H340.081C341.593 386.296 343.043 386.896 344.112 387.963C345.181 389.031 345.782 390.478 345.782 391.988C345.782 393.498 345.181 394.946 344.112 396.013C343.043 397.081 341.593 397.68 340.081 397.68Z" fill="#CCCCCC"/>
<path d="M274.163 209.123H170.832C169.32 209.123 167.87 208.524 166.801 207.456C165.731 206.388 165.131 204.941 165.131 203.431C165.131 201.921 165.731 200.473 166.801 199.406C167.87 198.338 169.32 197.739 170.832 197.739H274.163C275.675 197.739 277.125 198.338 278.194 199.406C279.263 200.473 279.864 201.921 279.864 203.431C279.864 204.941 279.263 206.388 278.194 207.456C277.125 208.524 275.675 209.123 274.163 209.123Z" fill="#6C63FF"/>
<path d="M96.9819 300.537C97.5746 301.121 98.3583 301.471 99.189 301.525C100.02 301.578 100.842 301.33 101.504 300.826C105.629 297.773 109.251 293.973 111.394 289.337C113.85 284.026 114.124 277.508 111.163 272.46C108.66 268.192 104.24 265.438 99.8349 263.177C98.1245 262.213 96.2822 261.504 94.3663 261.072C92.43 260.646 90.4036 260.972 88.6998 261.985C87.8663 262.507 87.2097 263.268 86.8155 264.168C86.4213 265.068 86.308 266.065 86.4903 267.031C84.3744 264.62 81.6643 262.804 78.6286 261.761C76.7171 261.015 74.6239 260.863 72.6245 261.327C69.8292 262.118 67.7885 264.598 66.6723 267.277C65.7696 269.314 65.4579 271.564 65.7726 273.77C65.9382 274.867 66.3328 275.918 66.9307 276.853C67.5286 277.789 68.3165 278.589 69.2435 279.202C71.5547 280.63 74.5031 280.527 77.1573 279.943C79.8115 279.36 82.3808 278.346 85.0863 278.089C87.7919 277.832 90.8047 278.506 92.4513 280.665C93.6108 282.185 93.9086 284.172 94.1689 286.065L95.5227 295.912C95.6334 297.336 95.9978 298.73 96.5987 300.026C96.7028 300.213 96.8317 300.385 96.9819 300.537Z" fill="#2F2E41"/>
</g>
<defs>
<clipPath id="clip0">
<rect width="445" height="437" fill="white"/>
</clipPath>
</defs>
</svg>
