<svg width="65" height="65" viewBox="0 0 65 65" fill="none" xmlns="http://www.w3.org/2000/svg">
<path d="M47.8984 34.9885C47.8273 27.8433 53.7251 24.4164 53.9888 24.2433C50.6742 19.3969 45.5102 18.7319 43.6723 18.6562C39.2811 18.2102 35.0997 21.2428 32.872 21.2428C30.6489 21.2428 27.2071 18.7216 23.5657 18.7858C18.7755 18.8569 14.3602 21.5718 11.8952 25.8599C6.92043 34.4898 10.6226 47.2793 15.4701 54.2834C17.8399 57.7069 20.6661 61.5592 24.374 61.4182C27.9477 61.2772 29.296 59.1068 33.6161 59.1068C37.9363 59.1068 39.1493 61.4182 42.9294 61.346C46.7725 61.276 49.2089 57.8571 51.5593 54.4198C54.28 50.4425 55.4001 46.5913 55.4666 46.3964C55.3829 46.3574 47.9752 43.5198 47.8984 34.9885Z" fill="#6C63FF"/>
<path d="M40.7957 14.0209C42.762 11.6338 44.0942 8.31689 43.7319 5.01489C40.8943 5.12955 37.4593 6.90093 35.4219 9.2857C33.5967 11.4022 32.0007 14.7718 32.4283 18.0142C35.5939 18.2596 38.8225 16.4033 40.7957 14.0209Z" fill="#6C63FF"/>
</svg>
