<svg width="65" height="65" viewBox="0 0 65 65" fill="none" xmlns="http://www.w3.org/2000/svg">
<g opacity="0.65">
<path d="M60.5121 17.7201C59.6059 7.9964 52.4248 4.75291 46.7728 4.5873C39.0791 4.36215 27.2966 4.06783 17.3153 3.94414C9.45765 3.84645 3.10034 9.39173 3.10034 18.0929C3.10034 29.84 2.44427 38.3302 2.44427 46.0436C2.44427 55.2189 7.0794 61.9268 17.818 62.4727C23.45 62.759 39.4822 64.0152 48.4974 62.4467C60.458 60.3658 61.1887 51.3473 61.3711 46.4104C61.6729 38.2355 61.6245 29.658 60.5121 17.7201ZM44.1268 50.635C44.1268 50.635 42.5977 49.1868 41.3237 47.537C46.8872 45.9304 49.0104 42.3695 49.0104 42.3695C47.2693 43.5418 45.6128 43.948 44.1264 44.5124C42.0028 45.4243 39.9644 45.613 37.9683 45.9605C35.9977 46.3383 34.1078 46.4809 32.32 46.4607C30.5322 46.4809 28.6423 46.3383 26.6717 45.9605C24.6756 45.6134 22.6372 45.4243 20.5136 44.5124C19.0272 43.948 17.3711 43.1229 15.63 41.9502C15.63 41.9502 17.7532 45.5111 23.3167 47.1177C22.0427 48.768 20.9237 49.7964 20.9237 49.7964C11.5382 49.4925 7.9286 42.3573 7.9286 42.3573C7.9286 28.3746 13.6339 18.7184 13.6339 18.7184C19.7497 14.0284 25.5678 14.1588 25.5678 14.1588L26.1624 14.8536C18.9428 17.1118 15.5878 20.3682 15.5878 20.3682C20.0044 17.8933 24.3365 16.6774 28.3709 16.1999C29.7191 16.0464 31.0398 15.9818 32.3204 15.9827C33.601 15.9818 34.9217 16.0464 36.2699 16.1999C40.3044 16.6774 44.636 17.8933 49.053 20.3682C49.053 20.3682 45.6981 17.1118 38.4784 14.8536L39.073 14.1588C39.073 14.1588 44.8911 14.0284 51.0065 18.7184C51.0065 18.7184 57.1219 30.0517 57.1219 44.0344C57.1219 44.0344 53.5122 50.331 44.1268 50.635Z" fill="#8DD070"/>
<path d="M24.8404 29.8605C22.8861 29.4878 20.9626 30.6878 19.9666 32.3741C18.7976 34.3526 18.912 36.9789 20.2684 38.8292C21.4621 40.4576 23.4717 41.1897 25.3698 40.57C27.7398 39.796 28.8748 37.1554 28.8966 34.7048C28.9166 32.3967 27.0948 30.2907 24.8404 29.8605Z" fill="black"/>
<path d="M59.3935 42.9929C59.0708 39.3243 58.4902 35.5831 57.5708 32.0193C56.6093 28.2916 55.9606 24.4934 54.5 20.9166C53.9448 19.5573 53.4261 17.526 52.1948 16.6526C50.9769 15.7885 49.7366 15.1655 48.3683 14.5651C46.0515 13.5488 43.9017 12.5924 41.3733 12.262C40.7702 12.2029 39.5031 11.8604 39.0016 12.3949C38.672 12.7467 38.5424 13.3932 38.321 13.8217C38.0692 14.3097 37.7846 14.8707 38.3353 15.2917C34.7868 14.6573 31.2404 14.5764 27.6631 14.9705C27.7087 14.9676 27.7538 14.9646 27.7993 14.9613C27.4852 14.9797 27.1846 15.0342 26.8738 15.0699C27.4077 14.4368 26.8324 12.9622 26.3018 12.3907C25.9438 11.7203 24.3078 12.2687 23.7702 12.3824C21.8122 12.7958 19.8338 13.1865 17.9578 13.9035C16.1737 14.586 13.1718 15.3868 12.1073 17.1214C10.7497 20.4059 9.7172 23.8578 8.73064 27.2744C7.92941 30.0093 7.45294 32.8637 6.86576 35.6552C6.57176 37.0544 6.30031 38.4568 6.12523 39.8773C6.01574 40.7662 5.93661 41.6542 5.89273 42.5489C5.85501 43.3174 5.68648 44.3195 5.88986 45.0708C6.21134 46.2574 7.69979 47.4678 8.56129 48.2216C9.73524 49.2488 11.0051 50.0023 12.4415 50.5821C14.2445 51.2593 16.0224 52.0127 17.9377 52.2911C18.7185 52.4047 19.5008 52.4856 20.2893 52.507C21.0012 52.385 21.2792 51.7926 21.7048 51.2354C22.2477 50.5251 22.7803 49.7985 23.3724 49.1294C23.7206 48.7361 24.2877 48.3273 24.236 47.7177C27.0743 48.6971 29.758 48.8191 32.7587 48.7591C35.4642 48.7051 38.1274 48.482 40.7566 47.7793C40.6209 48.6111 41.5132 49.3621 41.9818 49.9486C42.4702 50.5599 42.9901 51.1452 43.5068 51.7318C43.7938 52.0575 44.1149 52.5653 44.5659 52.6772C45.5373 52.9191 47.0016 52.2793 47.9426 52.055C48.839 51.8412 49.7255 51.5993 50.6063 51.3259C53.1506 50.5368 55.7441 49.3025 57.7472 47.4699C58.3795 46.8913 59.3632 45.9685 59.5477 45.0603C59.6772 44.4285 59.4538 43.626 59.3935 42.9929ZM56.9968 45C55.1028 47.2531 52.7155 48.8183 50.0039 49.861C48.6278 50.3901 45.0395 51.1456 45.0395 51.1456C44.486 50.4337 43.5158 49.1008 43 48.3604C45.2044 47.6753 47.3924 46.3408 49.0329 44.6738C49.4664 44.2335 50.4894 43.3535 50.6727 42.6965C50.7928 42.2655 50.5423 41.8013 50.12 41.6781C49.4668 41.4873 48.8492 42.2705 48.3756 42.6097C45.1068 44.9501 40.7169 46.0251 36.8145 46.4397C33.4164 46.8011 29.8105 47.0737 26.4543 46.3542C23.2392 45.6649 20.9778 44.7589 18.4548 43.3925C17.1144 42.6667 16.4107 41.964 16.0979 41.8039C15.6899 41.5951 15.2241 41.554 14.9424 42.0126C14.584 42.5967 15.2011 43.3388 15.5181 43.7862C16.3033 44.893 17.4998 45.7693 18.5918 46.5684C19.6443 47.3391 20.8117 47.8082 22.025 48.2703C21.5285 48.9172 20.095 50.9356 20.095 50.9356C19.2277 50.8316 17.8832 50.4262 17.0315 50.2346C15.211 49.8245 13.4642 49.1931 11.8625 48.2061C10.8419 47.5768 9.88532 46.8204 9.0353 45.9664C8.66011 45.5895 8.30337 45.1895 7.98395 44.7618C7.65592 44.3224 7.79861 43.6055 7.82157 43.0654C7.90768 40.0349 8.46493 37.0799 9.05908 34.1174C9.63068 31.2693 9.91115 28.4224 10.8489 25.6573C11.3127 24.2901 11.8252 22.9434 12.3862 21.6147C12.7938 20.6491 13.2887 18.7515 14.1842 18.1804C16.0237 17.0077 17.7971 16.0141 19.8002 15.1881C20.5423 14.882 21.3005 14.5751 22.0702 14.3517C22.7164 14.1638 24.5714 13.4968 25.3234 13.4968L25.476 14.054C19.6025 15.612 14.4971 19.1217 14.1891 19.9317C13.9452 20.5732 14.4622 21.008 15.024 20.7921C15.6743 20.5422 16.9803 19.998 17.4026 19.8009C23.7165 17.4463 30.139 16.1822 36.8325 17.1411C40.8841 17.7213 45.621 18.5117 49.3454 20.4336C50.1671 20.8575 50.6337 20.0693 50.2778 19.6261C49.5504 18.7213 47.6453 17.7964 46.4411 17.1142C45.1572 16.3872 40.9047 14.8359 39.6413 14.389C39.7336 14.1286 40.0514 13.5156 40.0514 13.5156C42.2106 13.724 45.8961 15.1663 47.8762 16.0661C48.7894 16.4811 50.5411 17.614 51.2144 18.38C52.2661 20.476 53.1699 22.6616 53.8665 24.9077C54.6337 27.3818 55.0966 29.9406 55.904 32.4034C56.492 34.1974 56.9209 36.0066 57.1383 37.8866C57.301 39.1729 57.3744 40.4722 57.4199 41.7678C57.4564 42.8441 57.7029 44.1534 56.9968 45C56.802 45.2314 57.1383 44.8306 56.9968 45Z" fill="black"/>
<path d="M45.1728 34.699C44.8095 32.0551 42.6646 29.8757 39.9849 29.9147C36.951 29.9587 34.8754 32.866 35.1542 35.8465C35.3978 38.4506 37.4894 40.8585 40.1674 40.8111C41.6329 40.7851 42.993 40.2824 43.9685 39.1244C44.9801 37.9232 45.3868 36.2545 45.1728 34.699C45.0444 33.764 45.2872 35.5321 45.1728 34.699Z" fill="black"/>
<path d="M64.1963 14.9509C64.1229 10.1766 62.9166 5.46401 58.9318 2.55008C54.9617 -0.352954 49.3388 0.215158 44.7062 0.256666C40.9936 0.289369 37.2914 0.46714 33.5825 0.605918C26.3982 0.87509 19.2884 0.710317 12.1016 0.727088C7.79739 0.73715 3.69286 3.42048 1.8206 7.33899C0.38955 10.333 0.744647 13.6712 0.882011 16.9009C1.31871 27.1491 0.19806 37.3881 0.562178 47.6217C0.725375 52.206 0.548646 57.1039 3.73714 60.7357C6.04855 63.3683 9.24074 64.4835 12.5953 64.6454C17.3953 64.8768 22.1977 64.6269 26.9981 64.7833C30.8726 64.9095 34.6905 64.6219 38.5613 64.6345C42.9832 64.6487 47.3878 64.4684 51.8093 64.3871C56.483 64.3007 60.5838 62.2207 62.8506 57.8783C64.7171 54.3024 64.2673 49.6451 64.4415 45.7425C64.6703 40.5977 64.2746 20.04 64.1963 14.9509ZM62.019 41.4031C61.8849 45.5937 61.9833 49.9273 61.5926 54.1024C61.2034 58.2574 57.1399 62.0165 53.1695 62.2337C48.7402 62.4761 44.301 62.4819 39.8783 62.1432C35.9333 61.8413 32.0432 62.2966 28.0982 62.3457C23.1834 62.4069 18.2654 62.3834 13.3506 62.3289C9.52736 62.2865 5.72708 61.3444 3.8212 57.5438C2.84489 55.5958 2.81085 53.5234 2.75386 51.3893C2.6821 48.7017 2.63084 46.0184 2.65176 43.3296C2.69276 38.0984 2.64479 32.868 2.71818 27.6372C2.78871 22.6235 3.32833 17.6564 3.59732 12.6562C3.80726 8.75697 5.58725 5.47994 9.24156 3.91774C11.1396 3.10603 13.26 3.15467 15.2831 3.13286C18.1079 3.10268 20.9343 3.03559 23.7591 3.09303C27.7845 3.17479 31.8079 3.32028 35.8332 3.39491C40.7185 3.48589 45.6009 3.17395 50.489 3.21965C52.8447 3.24146 55.1811 3.28171 57.244 4.58941C59.2524 5.86232 60.7811 8.00899 61.3551 10.3523C61.9132 12.6306 61.7816 15.1907 62.0415 17.529C62.3339 20.1574 62.4705 22.7786 62.4659 25.4238C62.4807 30.7502 62.1892 36.0809 62.019 41.4031Z" fill="black"/>
</g>
</svg>
