<svg width="65" height="65" viewBox="0 0 65 65" fill="none" xmlns="http://www.w3.org/2000/svg">
<path d="M65 60.9375C65 63.18 63.18 65 60.9375 65H4.0625C1.82 65 0 63.18 0 60.9375V4.0625C0 1.82 1.82 0 4.0625 0H60.9375C63.18 0 65 1.82 65 4.0625V60.9375Z" fill="#6C63FF"/>
<path d="M44.6875 65V40.625H52.8125L54.8438 30.4688H44.6875V26.4062C44.6875 22.3438 46.7228 20.3125 50.7812 20.3125H54.8438V10.1562C52.8125 10.1562 50.2938 10.1562 46.7188 10.1562C39.2539 10.1562 34.5312 16.0083 34.5312 24.375V30.4688H26.4062V40.625H34.5312V65H44.6875Z" fill="white"/>
</svg>
