<svg width="65" height="65" viewBox="0 0 65 65" fill="none" xmlns="http://www.w3.org/2000/svg">
<g clip-path="url(#clip0)">
<path fill-rule="evenodd" clip-rule="evenodd" d="M32.5061 0C14.564 0 0.0162354 14.5478 0.0162354 32.4939C0.0162354 46.8488 9.32342 59.0281 22.2381 63.3263C23.8631 63.6228 24.375 62.66 24.375 61.7987C24.375 61.0269 24.3912 58.8697 24.375 56.158C15.338 58.1222 13.4651 51.8781 13.4651 51.8781C11.9884 48.1244 9.85967 47.125 9.85967 47.125C6.9103 45.11 10.0811 45.1486 10.0811 45.1486C13.3412 45.3781 15.0597 48.4981 15.0597 48.4981C17.9583 53.4605 22.6626 52.0264 24.5131 51.1977C24.8097 49.0973 25.6506 47.6653 26.5789 46.8528C19.3639 46.0322 11.7792 43.2453 11.7792 30.7937C11.7792 27.2452 13.0447 24.3466 15.1226 22.0756C14.7875 21.255 13.6703 17.9502 15.4416 13.4753C15.4416 13.4753 18.1695 12.6019 24.375 16.8086C26.9669 16.0875 29.7476 15.728 32.5101 15.7158C35.2706 15.728 38.0494 16.0875 40.6453 16.8086C46.8508 12.6039 49.5747 13.4753 49.5747 13.4753C51.3459 17.9502 50.2308 21.255 49.8976 22.0756C51.9756 24.3466 53.237 27.2452 53.237 30.7937C53.237 43.2778 45.6401 46.0241 38.4008 46.8264C39.5667 47.8319 40.625 49.7819 40.625 52.8125C40.625 56.875 40.625 60.7384 40.625 61.8069C40.625 62.6763 41.1491 63.637 42.7984 63.3222C55.7009 59.018 65 46.8447 65 32.4939C65 14.5478 50.4522 0 32.5061 0Z" fill="#8DD070"/>
</g>
<defs>
<clipPath id="clip0">
<rect width="65" height="65" fill="white"/>
</clipPath>
</defs>
</svg>
