<svg width="65" height="65" viewBox="0 0 65 65" fill="none" xmlns="http://www.w3.org/2000/svg">
<path d="M60.9554 16.7318L60.9567 16.7305L60.9554 16.7314V15.3741C60.9554 12.7984 58.8479 10.6909 56.2721 10.6909L56.2707 10.6922L56.268 10.6942L56.2721 10.6909H8.47889L8.49734 10.7059L8.47889 10.6922C5.90319 10.6922 3.79556 12.7997 3.79556 15.3755V47.368C3.79556 49.9437 5.90308 52.0511 8.47889 52.0511H10.1461H54.4628V52.0499C59.3757 51.9929 60.8513 50.7772 60.963 47.3717L60.9554 16.7318ZM52.7829 11.8373L32.2997 26.9251L11.9498 11.8373H52.7829ZM11.3043 23.5606L30.2778 36.6298L30.2969 36.643L11.2934 49.857L11.3043 23.5606ZM11.7947 50.9047L31.3005 37.3414L31.6427 37.5795C31.8395 37.7164 32.0685 37.7849 32.2975 37.7849C32.5248 37.7849 33.3033 37.3378 33.3033 37.3378L52.8144 50.9047H11.7947ZM53.3038 49.8489L34.3119 36.6431L44.9038 29.3473L53.3038 23.5613V49.8489Z" fill="#8DD070"/>
</svg>
