<svg width="64" height="64" viewBox="0 0 64 64" fill="none" xmlns="http://www.w3.org/2000/svg">
<path fill-rule="evenodd" clip-rule="evenodd" d="M13.7925 32C13.7925 29.9215 14.1375 27.9285 14.754 26.0595L3.969 17.824C1.867 22.0915 0.682999 26.9005 0.682999 32C0.682999 37.0955 1.866 41.901 3.9645 46.166L14.7435 37.9145C14.133 36.054 13.7925 34.0685 13.7925 32Z" fill="#6C63FF"/>
<path fill-rule="evenodd" clip-rule="evenodd" d="M32.7285 13.091C37.244 13.091 41.3225 14.691 44.527 17.309L53.849 8C48.1685 3.0545 40.8855 0 32.7285 0C20.0645 0 9.18051 7.242 3.96901 17.824L14.7535 26.0595C17.2385 18.5165 24.322 13.091 32.7285 13.091Z" fill="#6C63FF"/>
<path fill-rule="evenodd" clip-rule="evenodd" d="M32.7285 50.9091C24.3225 50.9091 17.239 45.4836 14.754 37.9406L3.96901 46.1746C9.18051 56.7581 20.0645 64.0001 32.7285 64.0001C40.5445 64.0001 48.007 61.2246 53.6075 56.0246L43.3705 48.1106C40.482 49.9301 36.8445 50.9091 32.7285 50.9091Z" fill="#6C63FF"/>
<path fill-rule="evenodd" clip-rule="evenodd" d="M63.317 32C63.317 30.109 63.0255 28.0725 62.5885 26.182H32.7285V38.5455H49.9165C49.057 42.761 46.718 46.0015 43.3705 48.1105L53.6075 56.0245C59.4905 50.5645 63.317 42.4305 63.317 32Z" fill="#6C63FF"/>
</svg>
