<svg width="67" height="67" viewBox="0 0 67 67" fill="none" xmlns="http://www.w3.org/2000/svg">
<path d="M1 45.7995L40.2136 33.2556L8.78169 23.1554L1 45.7995Z" fill="#8DD070"/>
<path d="M49.0634 10.7744L33.1948 1L8.78169 23.1554L49.0634 10.7744Z" fill="#8DD070"/>
<path d="M40.2136 33.2556L58.8286 50.0351L49.0634 10.7744L40.2136 33.2556Z" fill="#8DD070"/>
<path d="M1 45.7995L40.2136 33.2556M1 45.7995L38.5352 66M1 45.7995L8.78169 23.1554M40.2136 33.2556L58.8286 50.0351M40.2136 33.2556L49.0634 10.7744M40.2136 33.2556L8.78169 23.1554M40.2136 33.2556L38.5352 66M58.8286 50.0351L49.0634 10.7744M58.8286 50.0351L38.5352 66M58.8286 50.0351L66 25.7619L49.0634 10.7744M49.0634 10.7744L33.1948 1L8.78169 23.1554M49.0634 10.7744L8.78169 23.1554" stroke="black"/>
</svg>
