<svg width="634" height="410" viewBox="0 0 634 410" fill="none" xmlns="http://www.w3.org/2000/svg">
<path d="M634 405.366H0V410H634V405.366Z" fill="#85848B"/>
<path d="M502.293 323.54C502.293 327.105 481.519 337.497 456.844 337.497C432.168 337.497 412.941 327.105 412.941 323.54C412.941 319.975 432.942 321.123 457.641 321.123C482.341 321.123 502.293 319.969 502.293 323.54Z" fill="#504F60"/>
<path opacity="0.2" d="M502.293 323.54C502.293 327.105 481.519 337.497 456.844 337.497C432.168 337.497 412.941 327.105 412.941 323.54" fill="black"/>
<path d="M253.792 258.13C257.797 258.643 261.953 258.97 265.789 257.725C266.393 257.538 267.057 257.121 266.997 256.517C266.953 256.297 266.86 256.09 266.725 255.912C265.279 253.743 264.064 251.429 263.101 249.006C263.062 248.88 262.984 248.77 262.877 248.692C262.752 248.647 262.615 248.647 262.49 248.692C260.721 249.158 259.192 250.299 257.435 250.789C256.538 251.035 255.603 251.105 254.68 250.994C253.883 250.904 252.795 250.245 252.071 250.33C252.481 252.97 253.484 255.435 253.792 258.13Z" fill="#6C63FF"/>
<path d="M329.534 251.441C332.174 249.629 334.91 247.726 336.469 244.928C336.58 244.761 336.644 244.567 336.656 244.366C336.629 244.169 336.552 243.982 336.432 243.823C334.948 241.462 333.037 239.399 330.797 237.738C329.628 238.564 328.572 239.539 327.655 240.638C326.991 241.339 325.155 242.451 325.137 243.52C325.137 244.125 325.837 244.825 326.163 245.333C326.604 245.986 327.021 246.65 327.42 247.327C327.649 247.659 329.745 251.308 329.534 251.441Z" fill="#6C63FF"/>
<path d="M269.491 266.22C269.539 266.842 269.368 267.462 269.008 267.972C268.726 268.256 268.377 268.464 267.993 268.576C262.394 270.582 255.912 268.081 250.325 270.057C249.177 270.461 248.09 271.047 246.936 271.434C245.561 271.848 244.142 272.099 242.708 272.183C240.733 272.371 238.745 272.491 236.764 272.546C235.259 272.652 233.746 272.52 232.282 272.153C231.55 271.966 230.865 271.626 230.273 271.157C229.681 270.687 229.194 270.098 228.845 269.428C228.541 268.828 228.48 268.133 228.676 267.489C228.763 267.268 228.888 267.064 229.044 266.885C229.423 266.46 229.867 266.099 230.361 265.815L232.421 264.486C233.387 263.803 234.436 263.246 235.544 262.83C236.359 262.565 237.223 262.45 238.051 262.226C240.944 261.38 243.155 259.084 245.209 256.879L248.011 253.888C248.273 253.559 248.606 253.293 248.984 253.109C249.373 252.979 249.786 252.94 250.192 252.994C252.915 253.189 255.543 254.07 257.833 255.556C258.418 255.995 259.05 256.368 259.718 256.668C261.361 257.308 263.469 256.825 264.985 256.015C265.704 255.628 265.547 255.411 265.849 254.722C266.151 254.033 266.888 253.592 267.528 254.221C267.721 254.438 267.858 254.699 267.927 254.982C268.531 256.976 268.301 259.121 268.301 261.211C268.284 261.538 268.325 261.865 268.422 262.178C268.576 262.493 268.76 262.792 268.972 263.072C269.015 263.146 269.053 263.223 269.087 263.302C269.456 264.227 269.595 265.229 269.491 266.22Z" fill="#514E7F"/>
<path d="M269.491 266.22C269.539 266.842 269.368 267.462 269.008 267.972C268.726 268.256 268.377 268.464 267.993 268.576C262.394 270.582 255.912 268.081 250.325 270.057C249.177 270.461 248.09 271.047 246.936 271.434C245.561 271.848 244.142 272.099 242.708 272.183C240.733 272.371 238.745 272.491 236.764 272.546C235.259 272.652 233.746 272.52 232.282 272.153C231.55 271.966 230.865 271.626 230.273 271.157C229.681 270.687 229.194 270.098 228.845 269.428C228.541 268.828 228.48 268.133 228.676 267.489C228.763 267.268 228.888 267.064 229.044 266.885C229.37 267.567 229.606 268.474 229.811 268.8C230.089 269.283 230.466 269.702 230.918 270.028C231.37 270.354 231.887 270.58 232.433 270.691C233.25 270.741 234.07 270.637 234.849 270.383C239.923 269.126 245.317 269.108 250.192 267.205C251.865 266.546 253.46 265.67 255.218 265.271C256.975 264.873 258.842 264.981 260.654 264.83C263.517 264.601 266.29 263.737 269.111 263.284C269.475 264.217 269.606 265.225 269.491 266.22Z" fill="#464353"/>
<path d="M342.358 251.073C342.092 253.2 340.745 255.03 339.265 256.583C337.785 258.136 336.112 259.532 334.934 261.32C333.485 263.537 332.832 266.286 330.948 268.159C330.224 268.841 329.411 269.42 328.531 269.881C327.546 270.463 326.503 270.943 325.42 271.313C322.606 272.214 319.573 272.008 316.632 271.791C315.676 271.781 314.731 271.599 313.841 271.253C313.436 271.047 313.048 270.809 312.681 270.54C311.944 270.086 311.323 269.465 310.869 268.727C310.646 268.326 310.583 267.856 310.694 267.41C310.862 266.92 311.151 266.479 311.533 266.129C312.195 265.441 312.906 264.801 313.66 264.214C314.694 263.547 315.626 262.732 316.426 261.797C316.917 261.058 317.279 260.241 317.495 259.381C317.923 257.873 318.184 256.323 318.275 254.758C318.271 253.719 318.379 252.682 318.595 251.665C319.042 250.07 320.226 248.644 320.093 246.995C320.039 246.758 320.06 246.511 320.153 246.288C320.294 246.113 320.49 245.991 320.709 245.943C321.632 245.575 322.605 245.349 323.596 245.273C324.093 245.238 324.592 245.315 325.055 245.497C325.519 245.678 325.937 245.961 326.278 246.324C326.689 246.819 326.961 247.532 327.565 247.726C327.864 247.807 328.178 247.82 328.483 247.762C329.969 247.611 331.54 247.423 332.711 246.463C333.253 245.977 333.688 245.384 333.99 244.722C334.291 244.059 334.452 243.342 334.463 242.614C334.463 242.064 334.215 241.49 335.067 241.406C335.707 241.321 336.215 242.01 336.541 242.433C337.719 244.01 338.927 245.659 339.368 247.581C339.54 247.514 339.722 247.479 339.906 247.478C340.282 247.475 340.654 247.562 340.99 247.734C341.325 247.905 341.614 248.155 341.833 248.463C342.314 249.242 342.5 250.168 342.358 251.073Z" fill="#514E7F"/>
<path d="M342.358 251.073C342.092 253.2 340.745 255.03 339.265 256.583C337.785 258.136 336.112 259.532 334.934 261.32C333.485 263.537 332.832 266.286 330.948 268.159C330.224 268.841 329.411 269.42 328.531 269.881C327.546 270.463 326.503 270.943 325.42 271.313C322.606 272.214 319.573 272.008 316.632 271.791C315.676 271.781 314.731 271.599 313.841 271.253C313.436 271.047 313.048 270.809 312.681 270.54C311.944 270.086 311.323 269.465 310.869 268.727C311.435 268.455 312.053 268.307 312.681 268.292C313.986 268.365 314.94 269.597 316.191 269.978C317.972 270.516 319.748 269.259 321.555 268.83C322.732 268.552 323.971 268.625 325.137 268.226C326.108 267.85 327.006 267.306 327.788 266.619C328.861 265.852 329.815 264.932 330.621 263.888C331.291 262.844 331.847 261.732 332.282 260.571C333.236 258.345 334.359 256.196 335.641 254.142C335.831 253.817 336.06 253.517 336.324 253.248C336.607 252.988 336.928 252.807 337.248 252.577C338.456 251.665 338.957 250.16 339.38 248.686C339.495 248.238 339.655 247.803 339.857 247.387C340.234 247.384 340.606 247.472 340.942 247.643C341.277 247.815 341.566 248.065 341.784 248.372C342.304 249.17 342.508 250.133 342.358 251.073Z" fill="#464353"/>
<path d="M215.695 62.6972C217.198 63.8241 218.435 65.268 219.319 66.9266C220.165 68.5821 225.039 81.4272 224.755 83.2942C226.344 81.6931 232.608 81.4333 234.215 79.8321C234.885 79.1615 238.504 75.8142 239.047 75.0348C239.591 74.2554 243.626 72.6181 244.067 71.7964C245.716 68.8419 232.372 57.6461 234.082 54.7279C234.177 54.5938 234.225 54.4327 234.221 54.2687C234.182 54.131 234.104 54.0073 233.997 53.9122C232.904 52.7945 231.454 52.0996 230.137 51.2719C228.821 50.4442 227.552 49.2901 227.196 47.7676C225.94 48.3458 224.787 49.1254 223.783 50.0756C221.334 52.1742 218.928 54.315 216.564 56.4982C215.64 57.3561 213.852 58.4981 213.423 59.7246C212.916 61.0417 214.813 61.9782 215.695 62.6972Z" fill="#A1616A"/>
<path d="M237.295 57.9422C235.248 59.3183 233.335 60.884 231.581 62.6187C229.926 64.256 228.355 66.1532 227.957 68.4431C227.788 69.3433 227.812 70.2557 227.673 71.168C227.069 75.1255 223.65 78.0256 222.14 81.7293C221.702 82.8724 221.381 84.0565 221.179 85.2639C220.755 87.5525 220.523 89.8726 220.485 92.2C220.448 94.4536 222.659 96.0064 223.469 98.109C224.278 100.212 224.496 102.375 224.906 104.532C225.68 108.604 227.099 112.531 228.531 116.434C231.509 124.663 241.161 147.411 244.139 155.646C253.267 153.357 277.562 148.094 285.644 143.266C288.338 141.659 266.948 123.527 269.83 122.277C269.994 122.251 270.151 122.188 270.287 122.091C270.423 121.994 270.534 121.868 270.613 121.721C270.691 121.574 270.735 121.41 270.739 121.244C270.744 121.077 270.709 120.911 270.639 120.76C267.758 108.157 258.745 97.8009 254.656 85.5297C253.236 81.2701 250.687 77.6329 248.754 73.5848C247.003 69.9173 246.066 65.8632 243.97 62.377C243.575 61.6587 243.058 61.0147 242.442 60.4738C241.919 60.0728 241.354 59.7304 240.757 59.4527C239.561 58.8727 238.449 58.5283 237.295 57.9422Z" fill="#514E7F"/>
<path d="M216.178 61.2653C224.068 61.2653 230.464 54.8678 230.464 46.9761C230.464 39.0844 224.068 32.6869 216.178 32.6869C208.288 32.6869 201.892 39.0844 201.892 46.9761C201.892 54.8678 208.288 61.2653 216.178 61.2653Z" fill="#A1616A"/>
<path d="M230.711 53.6887C231.423 53.0318 232.318 52.6063 233.276 52.4682C234.235 52.3302 235.213 52.4861 236.081 52.9153C237.048 53.4168 237.893 54.4318 237.676 55.4952L244.762 55.604C245.889 55.5731 247.017 55.6765 248.12 55.9121C249.23 56.1539 250.222 56.7757 250.923 57.6703C251.007 57.7851 251.104 57.9241 251.249 57.9422C251.367 57.944 251.482 57.9057 251.575 57.8334C252.665 57.2866 253.893 57.0763 255.103 57.2292C258.933 57.477 262.472 59.3923 265.474 61.7849C266.016 62.1571 266.436 62.6803 266.683 63.2893C266.93 64.0929 266.634 65.1019 267.287 65.6759C267.287 72.322 269.57 78.5331 271.092 85.0101C271.364 86.1641 272.469 87.1852 273.236 88.0915C274.184 89.0962 274.958 90.252 275.526 91.5112C276.819 94.8705 275.037 98.822 276.293 102.193C276.825 103.619 277.851 104.791 278.709 106.03C279.84 107.46 280.555 109.174 280.775 110.984C280.829 111.794 280.727 112.61 280.775 113.401C280.856 114.49 281.059 115.566 281.379 116.609C281.895 118.559 282.434 120.506 282.998 122.452C283.916 125.594 285.112 128.983 287.927 130.657C281.131 131.811 273.967 132.941 267.492 130.578C266.589 130.27 265.731 129.841 264.943 129.304C262.605 127.636 261.476 124.784 260.467 122.089C259.343 119.068 258.202 115.993 257.972 112.779C257.974 111.757 257.83 110.739 257.543 109.758C256.885 108.006 255.127 106.948 253.532 105.976C251.732 104.989 250.1 103.72 248.7 102.218C248.005 101.461 247.473 100.57 247.136 99.5989C246.8 98.6283 246.666 97.5989 246.743 96.5744C246.864 95.5774 247.256 94.6168 247.293 93.6138C247.329 92.6109 246.882 91.4629 245.921 91.197C240.974 89.6986 238.612 83.838 237.513 78.7869C237.039 76.1763 236.826 73.5248 236.879 70.872L236.812 65.7182C236.13 65.0969 235.58 64.3432 235.198 63.5029C234.816 62.6625 234.609 61.7532 234.589 60.8302C234.655 60.2917 234.645 59.7467 234.559 59.211C234.32 58.5562 233.931 57.9665 233.424 57.4891C232.331 56.3678 231.417 55.0862 230.711 53.6887Z" fill="#464353"/>
<path d="M215.495 70.0261C215.332 71.6211 215.695 73.2585 215.338 74.8234C215.199 75.4276 214.958 76.0318 214.782 76.5937C214.247 78.846 214.479 81.2127 215.441 83.3183C216.402 85.4033 217.552 87.3954 218.878 89.2697C219.326 89.9095 219.695 90.6013 219.977 91.33C220.206 92.0951 220.348 92.8835 220.4 93.6803C220.75 96.8798 221.311 100.053 222.079 103.178C222.756 105.885 230.439 129.026 232.227 131.17C232.552 131.645 233.044 131.98 233.605 132.107C234.009 132.122 234.411 132.039 234.777 131.865L238.401 130.476C238.709 130.381 238.995 130.225 239.241 130.016C239.58 129.62 239.765 129.113 239.76 128.591C240.02 125.642 232.318 102.338 231.34 99.553C228.38 91.1427 224.441 83.0344 222.514 74.3279C221.977 71.9112 221.693 68.1893 219.923 66.2619C219.192 65.4644 219.44 65.8028 218.564 66.2197C218.121 66.4118 217.693 66.6359 217.283 66.8903C216.771 67.2468 216.344 67.7133 216.035 68.2559C215.725 68.7984 215.541 69.4032 215.495 70.0261Z" fill="#464353"/>
<path d="M226.495 85.9828C227.468 91.1245 228.47 96.2541 229.467 101.396L243.65 97.68C243.765 96.1937 242.974 94.8162 242.442 93.4507C241.149 90.2062 241.119 86.5931 240.074 83.2579C239.283 80.7203 237.906 78.3881 237.163 75.8324C236.734 74.3461 236.516 72.8114 236.093 71.307C235.64 69.8296 235.083 68.386 234.426 66.987C233.63 64.958 232.592 63.0328 231.333 61.2532C229.521 61.9299 227.588 62.7153 226.555 64.3527C226.026 65.2753 225.723 66.3109 225.674 67.3737C225.426 70.5578 226.58 73.76 226.199 76.926C225.807 79.9411 225.907 82.9998 226.495 85.9828Z" fill="#6C63FF"/>
<path d="M243.886 154.378C244.683 157.399 243.529 160.577 242.587 163.567C241.168 168.072 240.201 172.707 239.7 177.403C239.638 178.599 239.398 179.778 238.987 180.902C238.54 181.911 237.779 182.763 237.259 183.723C235.834 186.249 235.87 189.33 236.178 192.218C236.383 194.121 236.691 196.019 237.072 197.892C237.537 200.182 238.111 202.574 237.44 204.81C238.564 204.562 239.325 206.018 239.253 207.16C239.18 208.302 238.812 209.577 239.361 210.562C240.751 211.069 240.763 212.978 240.72 214.459C240.743 217.025 241.068 219.58 241.687 222.072C243.789 232.182 246.02 242.264 248.38 252.317C253.484 253.9 259.446 255.55 264.315 253.357C265.221 252.952 266.127 252.305 266.332 251.327C266.385 250.799 266.319 250.266 266.139 249.768L263.831 241.369C263.27 239.339 262.708 237.243 263.004 235.158C263.227 233.606 263.904 231.932 263.143 230.56C262.883 230.089 262.472 229.721 262.17 229.274C260.962 227.503 261.596 225.135 261.693 222.99C261.731 222.508 261.698 222.024 261.596 221.552C261.431 221.001 261.2 220.471 260.908 219.975C259.001 216.272 258.085 212.138 258.25 207.976C258.322 207.445 258.249 206.904 258.039 206.411C257.892 206.207 257.761 205.993 257.646 205.77C257.556 205.382 257.601 204.975 257.773 204.616C257.081 204.091 256.456 203.482 255.912 202.804C256.247 202.595 256.531 202.314 256.741 201.98C256.951 201.646 257.083 201.269 257.126 200.876C257.169 200.484 257.122 200.087 256.989 199.716C256.857 199.344 256.641 199.008 256.359 198.731C256.606 198.682 256.833 198.565 257.017 198.394C257.201 198.222 257.334 198.003 257.401 197.761C257.468 197.519 257.466 197.263 257.397 197.021C257.327 196.78 257.192 196.562 257.006 196.393C256.71 196.188 256.317 196.097 256.106 195.789C255.779 195.342 256.045 194.72 256.311 194.242L257.718 191.699C258.769 189.808 259.005 187.469 260.135 185.657C261.753 183.016 262.811 180.074 263.856 177.162L267.921 165.942L270.657 168.316C271.569 169.013 272.332 169.884 272.904 170.878C273.293 171.861 273.539 172.895 273.635 173.947C274.638 180.038 278.468 185.318 279.887 191.318C280.201 192.653 280.413 194.055 281.18 195.197C281.454 195.548 281.701 195.919 281.917 196.309C282.117 196.903 282.221 197.525 282.225 198.151C282.351 199.379 282.741 200.564 283.366 201.628C283.991 202.691 284.838 203.607 285.849 204.314C287.196 205.239 288.869 205.873 289.6 207.335C289.746 207.788 289.949 208.22 290.204 208.622C290.857 209.408 292.264 209.498 292.542 210.483C292.699 211.033 292.409 211.691 292.717 212.175C292.892 212.398 293.124 212.572 293.388 212.676L297.32 214.64C301.717 216.839 303.965 221.89 307.208 225.57C308.329 226.768 309.321 228.08 310.168 229.485C311.57 231.992 312.216 235.14 314.584 236.735C315.22 237.065 315.8 237.496 316.299 238.01C317.042 238.989 316.77 240.36 316.837 241.593C316.903 242.826 317.846 244.294 319.018 243.919C318.607 245.412 318.607 246.988 319.018 248.481C324.162 248.216 329.068 246.229 332.947 242.838C334.095 241.835 335.2 240.554 335.212 239.031C335.23 238.768 335.171 238.506 335.043 238.276C334.811 237.979 334.505 237.747 334.155 237.605C330.476 235.611 329.371 230.989 327.511 227.237C325.886 223.926 323.481 221.075 321.47 217.999C317.097 211.383 314.113 203.378 307.498 199.009C306.043 198.049 304.351 197.197 303.62 195.608C303.216 194.72 303.167 193.705 302.847 192.786C302.527 191.868 301.76 190.974 300.781 190.974C301.325 189.644 301.216 188.025 301.252 186.587C301.29 185.949 301.216 185.309 301.035 184.696C300.784 184.036 300.457 183.408 300.062 182.823C298.337 179.9 297.474 176.549 297.574 173.156C297.622 171.41 297.93 169.609 297.405 167.942C297.139 167.102 296.674 166.335 296.354 165.525C295.871 164.058 295.616 162.526 295.598 160.981L295.236 155.175C295.181 153.241 294.93 151.318 294.487 149.435C293.279 144.928 292.071 126.047 287.933 123.92C283.795 121.793 276.686 136.324 272.028 136.608C269.968 136.694 267.932 137.087 265.988 137.774C262.889 138.934 260.292 141.097 257.761 143.212L249.195 150.408C247.383 151.9 245.885 153.326 243.886 154.378Z" fill="#464353"/>
<path d="M202.774 31.1099C204.659 28.5361 207.896 27.1706 211.086 27.0558C214.275 26.941 217.416 27.944 220.273 29.3638C221.117 29.8435 222.018 30.2131 222.955 30.4635C224.465 30.7716 226.145 30.3607 227.51 31.0676C229.322 32.0283 229.672 34.4753 229.515 36.5054C229.358 38.5355 228.978 40.7891 230.059 42.5473C230.442 43.0488 230.792 43.5756 231.104 44.1243C231.569 45.1695 231.297 46.3779 231.019 47.4836C230.313 46.8794 229.914 45.9671 229.286 45.2662C228.658 44.5653 227.564 44.0941 226.785 44.6197C226.006 45.1454 226.018 46.1 225.976 46.958C225.933 47.8159 225.716 48.843 224.906 49.121C224.568 49.1979 224.215 49.1717 223.892 49.0457C223.569 48.9197 223.291 48.6996 223.094 48.4141C221.711 46.7223 222.267 44.0216 220.895 42.3177C220.116 41.351 218.818 40.8798 218.099 39.8647C217.531 39.0672 217.386 38.0521 216.891 37.1942C216.395 36.3362 215.242 35.7079 214.474 36.3C214.213 36.5502 213.994 36.8421 213.828 37.164C213.35 37.8493 212.654 38.3533 211.854 38.5945C211.054 38.8357 210.196 38.8 209.418 38.4932C208.825 38.1285 208.182 37.8498 207.51 37.6655C207.07 37.6434 206.632 37.7449 206.247 37.9584C205.862 38.172 205.544 38.4891 205.329 38.8738C204.896 39.6426 204.686 40.5176 204.725 41.3994C204.725 42.6078 204.942 43.8947 204.254 44.8614C203.992 45.2253 203.664 45.5368 203.287 45.7798C202.279 46.4263 200.871 46.8613 199.941 46.1242C199.626 45.8304 199.391 45.4605 199.26 45.05C199.129 44.6395 199.105 44.2021 199.192 43.7799C199.373 42.9389 199.611 42.1113 199.905 41.3027C200.436 39.4297 199.742 37.3211 200.321 35.5568C200.929 33.968 201.754 32.4713 202.774 31.1099Z" fill="#464353"/>
<path d="M210.427 73.7358C210.337 74.1762 210.383 74.6338 210.56 75.0469C210.74 75.3283 210.984 75.5625 211.273 75.7297C213.304 76.9954 215.615 77.7443 218.002 77.9108C218.327 77.9164 218.646 77.9993 218.932 78.1525C219.5 78.5271 219.536 79.3609 219.325 80.0255C219.043 80.6524 218.897 81.3319 218.896 82.0193C219.071 83.2821 220.569 83.8319 221.832 84.0192C223.602 84.2428 225.541 84.128 226.942 83.0223C227.891 82.1563 228.615 81.0716 229.05 79.8624C232.517 71.893 233.732 63.0839 237.241 55.1387C237.507 54.62 237.685 54.0605 237.767 53.4833C237.804 53.1943 237.763 52.9007 237.648 52.633C237.533 52.3652 237.349 52.1331 237.114 51.9607C236.462 51.5559 235.447 51.7855 235.006 51.1511C234.789 50.8308 234.813 50.3958 234.62 50.0575C234.215 49.3385 233.152 49.4533 232.427 49.0364C231.859 48.7343 231.466 48.112 230.832 47.9911C230.521 47.9735 230.21 48.0288 229.923 48.1526C229.637 48.2763 229.384 48.4652 229.183 48.7041C227.123 50.6254 226.042 53.3503 224.894 55.9242C223.142 59.8695 221.09 63.675 218.757 67.3072C219.029 66.8843 217.452 63.682 216.836 63.5431C215.755 63.3256 214.372 65.2227 213.786 65.9296C211.947 68.1594 210.782 70.8673 210.427 73.7358Z" fill="#6C63FF"/>
<path opacity="0.1" d="M232.372 49.5983C231.939 49.6055 231.512 49.7103 231.124 49.9048C230.736 50.0993 230.397 50.3787 230.131 50.7221C229.485 51.5619 229.358 52.6736 229.195 53.7431C228.645 57.1312 227.437 60.3786 225.637 63.3014" fill="black"/>
<path opacity="0.1" d="M235.453 52.009C234.854 52.0224 234.269 52.1915 233.755 52.4998C233.242 52.8081 232.817 53.2449 232.523 53.7672C232.124 54.7176 231.875 55.7247 231.787 56.7519C231.269 59.0295 230.27 61.1699 228.857 63.0295" fill="black"/>
<path d="M379.012 170.129V162.625C379.01 157.101 376.815 151.803 372.909 147.898C369.004 143.992 363.707 141.798 358.184 141.798H61.9032C56.3804 141.798 51.0837 143.992 47.1779 147.898C43.2721 151.803 41.0771 157.101 41.0755 162.625V176.461L379.012 170.129Z" fill="#33323D"/>
<path d="M144.326 133.001C144.326 133.001 143.48 185.481 152.783 202.749C162.085 220.017 166.072 295.137 166.072 295.137C166.072 295.137 263.59 305.227 331.546 283.053C399.501 260.879 544.099 251.81 544.099 251.81L519.732 87.5356C519.732 87.5356 399.35 79.814 330.869 112.483C262.388 145.152 144.326 133.001 144.326 133.001Z" fill="#8DD070"/>
<path opacity="0.1" d="M144.326 133.001C144.326 133.001 143.48 185.481 152.783 202.749C162.085 220.017 166.072 295.137 166.072 295.137C166.072 295.137 263.59 305.227 331.546 283.053C399.501 260.879 544.099 251.81 544.099 251.81L519.732 87.5356C519.732 87.5356 399.35 79.814 330.869 112.483C262.388 145.152 144.326 133.001 144.326 133.001Z" fill="black"/>
<path d="M165.909 152.172C165.909 152.172 162.858 195.475 170.512 209.311C178.165 223.147 178.521 284.914 178.521 284.914C178.521 284.914 266.284 288.986 328.713 267.73C391.141 246.475 522.329 232.687 522.329 232.687L507.421 98.3447C507.421 98.3447 398.873 97.2269 335.52 127.147C272.167 157.066 165.909 152.172 165.909 152.172Z" fill="#8DD070"/>
<path opacity="0.1" d="M334.556 243.133C347.043 241.578 354.462 218.6 351.126 191.812C347.79 165.024 334.963 144.569 322.476 146.125C309.989 147.68 302.57 170.658 305.906 197.446C309.242 224.234 322.069 244.689 334.556 243.133Z" fill="black"/>
<path opacity="0.2" d="M453.733 7.51013C453.733 7.51013 336.783 37.1156 281.633 89.2274C226.483 141.339 110.384 166.014 110.384 166.014C110.384 166.014 125.679 216.217 139.826 229.799C153.973 243.381 180.805 313.661 180.805 313.661C180.805 313.661 276.71 293.324 334.578 251.345C392.446 209.365 527.312 156.347 527.312 156.347L453.733 7.51013Z" fill="black"/>
<path d="M108.627 158.498C108.627 158.498 123.915 208.707 138.05 222.289C152.185 235.871 179.029 306.145 179.029 306.145C179.029 306.145 274.946 285.814 332.82 243.835C390.694 201.855 525.549 148.855 525.549 148.855L451.969 0C451.969 0 335.025 29.6055 279.875 81.7172C224.725 133.829 108.627 158.498 108.627 158.498Z" fill="#8DD070"/>
<path opacity="0.1" d="M108.627 158.498C108.627 158.498 123.915 208.707 138.05 222.289C152.185 235.871 179.029 306.145 179.029 306.145C179.029 306.145 274.946 285.814 332.82 243.835C390.694 201.855 525.549 148.855 525.549 148.855L451.969 0C451.969 0 335.025 29.6055 279.875 81.7172C224.725 133.829 108.627 158.498 108.627 158.498Z" fill="black"/>
<path d="M135.03 170.123C135.03 170.123 145.413 212.278 156.945 223.093C168.476 233.908 187.751 292.575 187.751 292.575C187.751 292.575 272.524 269.507 325.421 230.113C378.317 190.72 498.958 137.388 498.958 137.388L443.561 14.0596C443.561 14.0596 339.912 46.3054 288.791 94.2301C237.67 142.155 135.03 170.123 135.03 170.123Z" fill="#8DD070"/>
<path opacity="0.1" d="M323.465 204.93C334.872 199.616 334.884 175.47 323.491 150.998C312.098 126.526 293.614 110.995 282.206 116.309C270.799 121.622 270.787 145.768 282.181 170.24C293.574 194.712 312.057 210.243 323.465 204.93Z" fill="black"/>
<path opacity="0.1" d="M387.01 177.494V385.941C387.01 388.308 386.543 390.652 385.637 392.84C384.731 395.027 383.404 397.014 381.73 398.687C380.056 400.361 378.069 401.688 375.882 402.594C373.695 403.499 371.351 403.965 368.985 403.964H59.1064C54.3286 403.962 49.7469 402.063 46.3691 398.683C42.9912 395.303 41.0936 390.72 41.0936 385.941V156.48C49.9732 159.779 49.9732 159.779 59.1064 159.501H368.985C373.759 159.501 378.338 161.396 381.717 164.769C385.097 168.142 387 172.719 387.01 177.494Z" fill="black"/>
<path d="M387.01 180.146V388.593C387.008 393.374 385.108 397.958 381.728 401.338C378.348 404.718 373.764 406.616 368.985 406.616H59.1064C54.3286 406.615 49.7469 404.715 46.3691 401.335C42.9912 397.956 41.0936 393.372 41.0936 388.593V159.127C49.9732 162.419 49.9732 162.419 59.1064 162.148H368.985C373.76 162.148 378.34 164.043 381.72 167.417C385.099 170.792 387.002 175.37 387.01 180.146Z" fill="#504F60"/>
<path opacity="0.1" d="M386.128 257.211V323.872H321.494C312.734 323.754 304.373 320.191 298.22 313.953C292.067 307.715 288.617 299.305 288.617 290.542C288.617 281.779 292.067 273.369 298.22 267.131C304.373 260.893 312.734 257.329 321.494 257.211H386.128Z" fill="black"/>
<path d="M387.01 255.435V322.108H322.376C313.616 321.99 305.255 318.426 299.102 312.189C292.949 305.951 289.499 297.54 289.499 288.778C289.499 280.015 292.949 271.604 299.102 265.366C305.255 259.129 313.616 255.565 322.376 255.447L387.01 255.435Z" fill="#33323D"/>
<path opacity="0.1" d="M325.475 303.541C332.651 303.541 338.468 297.722 338.468 290.545C338.468 283.367 332.651 277.549 325.475 277.549C318.299 277.549 312.482 283.367 312.482 290.545C312.482 297.722 318.299 303.541 325.475 303.541Z" fill="black"/>
<path d="M326.357 301.777C333.533 301.777 339.35 295.958 339.35 288.781C339.35 281.603 333.533 275.784 326.357 275.784C319.181 275.784 313.364 281.603 313.364 288.781C313.364 295.958 319.181 301.777 326.357 301.777Z" fill="#6C63FF"/>
<path d="M499.2 254.861C499.713 260.426 495.503 265.827 496.729 271.277C496.995 272.443 497.497 273.543 497.678 274.721C498.185 277.959 496.258 281.023 494.416 283.729L478.59 306.955C477.956 307.976 477.197 308.913 476.331 309.746C473.31 312.441 468.768 312.163 464.793 312.966C461.999 313.534 459.361 314.7 457.061 316.386C456.965 316.468 456.904 316.584 456.891 316.71C456.877 316.836 456.912 316.962 456.989 317.063C457.646 317.958 458.516 318.673 459.521 319.145C460.525 319.617 461.632 319.83 462.739 319.764C463.156 320.313 462.739 321.117 462.135 321.51C461.284 322.114 460.118 322.259 459.949 323.697C459.889 324.199 459.99 324.707 460.239 325.147C460.876 326.124 461.868 326.815 463.005 327.074C468.484 328.748 474.404 325.806 478.505 321.8C482.607 317.794 485.548 312.737 489.571 308.659C491.8 306.405 494.331 304.471 496.627 302.284C501.205 297.922 504.763 292.617 508.2 287.306C509.233 285.705 510.272 284.062 510.707 282.207C511.142 280.352 510.937 278.479 511.426 276.685C512.066 274.328 513.788 272.455 515.219 270.48C518.028 266.613 519.901 261.882 519.532 257.121C519.164 252.36 516.21 247.653 511.716 246.034C510.323 245.474 508.787 245.381 507.337 245.768C505.494 246.336 504.135 247.858 502.879 249.315L499.858 252.789C499.105 253.551 498.51 254.454 498.107 255.447C497.913 255.946 497.867 256.489 497.974 257.013C498.081 257.537 498.337 258.019 498.711 258.402" fill="#FBBEBE"/>
<path opacity="0.05" d="M499.2 254.861C499.713 260.426 495.503 265.827 496.729 271.277C496.995 272.443 497.497 273.543 497.678 274.721C498.185 277.959 496.258 281.023 494.416 283.729L478.59 306.955C477.956 307.976 477.197 308.913 476.331 309.746C473.31 312.441 468.768 312.163 464.793 312.966C461.999 313.534 459.361 314.7 457.061 316.386C456.965 316.468 456.904 316.584 456.891 316.71C456.877 316.836 456.912 316.962 456.989 317.063C457.646 317.958 458.516 318.673 459.521 319.145C460.525 319.617 461.632 319.83 462.739 319.764C463.156 320.313 462.739 321.117 462.135 321.51C461.284 322.114 460.118 322.259 459.949 323.697C459.889 324.199 459.99 324.707 460.239 325.147C460.876 326.124 461.868 326.815 463.005 327.074C468.484 328.748 474.404 325.806 478.505 321.8C482.607 317.794 485.548 312.737 489.571 308.659C491.8 306.405 494.331 304.471 496.627 302.284C501.205 297.922 504.763 292.617 508.2 287.306C509.233 285.705 510.272 284.062 510.707 282.207C511.142 280.352 510.937 278.479 511.426 276.685C512.066 274.328 513.788 272.455 515.219 270.48C518.028 266.613 519.901 261.882 519.532 257.121C519.164 252.36 516.21 247.653 511.716 246.034C510.323 245.474 508.787 245.381 507.337 245.768C505.494 246.336 504.135 247.858 502.879 249.315L499.858 252.789C499.105 253.551 498.51 254.454 498.107 255.447C497.913 255.946 497.867 256.489 497.974 257.013C498.081 257.537 498.337 258.019 498.711 258.402" fill="black"/>
<path d="M511.178 398.116C507.723 400.224 503.416 400.351 499.399 399.862C498.753 399.783 497.986 399.735 497.587 400.236C496.983 400.961 497.696 402.049 498.433 402.611C500.802 404.39 503.586 405.536 506.521 405.94C509.142 406.311 511.787 406.487 514.434 406.465C521.683 406.592 528.931 406.713 536.065 405.674C536.488 405.642 536.899 405.523 537.273 405.324C537.733 405.001 538.053 404.514 538.167 403.964C538.657 402.103 537.714 400.109 536.289 398.816C534.863 397.523 533.033 396.804 531.245 396.11L524.963 393.663C523.489 393.089 521.127 391.566 519.526 391.687C516.518 391.904 513.673 396.653 511.178 398.116Z" fill="#3F3D56"/>
<path opacity="0.05" d="M511.178 398.116C507.723 400.224 503.416 400.351 499.399 399.862C498.753 399.783 497.986 399.735 497.587 400.236C496.983 400.961 497.696 402.049 498.433 402.611C500.802 404.39 503.586 405.536 506.521 405.94C509.142 406.311 511.787 406.487 514.434 406.465C521.683 406.592 528.931 406.713 536.065 405.674C536.488 405.642 536.899 405.523 537.273 405.324C537.733 405.001 538.053 404.514 538.167 403.964C538.657 402.103 537.714 400.109 536.289 398.816C534.863 397.523 533.033 396.804 531.245 396.11L524.963 393.663C523.489 393.089 521.127 391.566 519.526 391.687C516.518 391.904 513.673 396.653 511.178 398.116Z" fill="black"/>
<path d="M515.582 314.7C512.966 318.181 510.26 322.199 510.906 326.506C511.257 328.827 512.556 330.875 513.51 333.02C514.803 335.932 515.479 339.062 516.144 342.179C517.122 346.735 518.107 351.303 518.705 355.931C519.387 361.157 516.18 376.28 515.884 381.542C515.811 382.811 515.66 384.183 514.778 385.095C514.434 385.458 513.975 385.748 513.818 386.219C513.726 386.673 513.801 387.145 514.029 387.548C515.503 390.871 518.518 393.348 521.882 394.762C525.247 396.176 533.359 398.617 537.026 398.744C537.509 398.797 537.998 398.733 538.451 398.557C538.939 398.259 539.323 397.818 539.551 397.294C542.178 392.267 539.653 374.395 539.69 368.721C539.726 363.991 540.843 359.29 540.638 354.565C540.469 350.771 539.43 347.061 539.086 343.279C538.481 337.08 539.617 330.851 540.759 324.724C541.629 320.023 542.504 315.323 543.622 310.683C544.305 307.849 545.096 304.991 546.642 302.532C547.85 300.58 549.548 298.949 550.955 297.094C554.862 291.971 556.597 285.517 555.788 279.126C555.703 278.521 546.727 281.403 545.935 281.748C542.707 283.115 539.736 285.026 537.153 287.397C535.075 289.379 533.438 292.025 531.619 294.242C529.046 297.38 526.505 300.54 523.996 303.722C521.133 307.359 518.328 311.019 515.582 314.7Z" fill="#464353"/>
<path opacity="0.05" d="M515.582 314.489C512.966 317.969 510.26 321.993 510.906 326.295C511.257 328.621 512.556 330.669 513.51 332.814C514.803 335.72 515.479 338.856 516.144 341.968C517.122 346.529 518.107 351.097 518.705 355.719C519.387 360.951 516.18 376.068 515.884 381.331C515.811 382.6 515.66 383.977 514.778 384.89C514.434 385.246 513.975 385.536 513.818 386.007C513.725 386.462 513.8 386.934 514.029 387.337C515.503 390.666 518.518 393.137 521.882 394.587C525.247 396.037 533.359 397.3 537.026 397.421C537.509 397.474 537.998 397.41 538.451 397.233C538.94 396.94 539.324 396.5 539.551 395.977C542.178 390.95 539.653 374.226 539.69 368.546C539.726 363.809 540.843 359.115 540.638 354.384C540.469 350.59 539.43 346.88 539.085 343.104C538.481 336.899 539.617 330.669 540.759 324.543C541.629 319.848 542.504 315.148 543.622 310.501C544.304 307.668 545.096 304.81 546.642 302.351C547.85 300.399 549.548 298.768 550.955 296.913C554.863 291.791 556.599 285.336 555.787 278.944C555.703 278.34 546.727 281.222 545.935 281.566C542.708 282.938 539.737 284.851 537.153 287.222C535.075 289.197 533.438 291.844 531.619 294.061C529.046 297.199 526.505 300.361 523.996 303.547C521.133 307.156 518.328 310.803 515.582 314.489Z" fill="black"/>
<path d="M486.479 238.052C494.575 238.052 501.139 231.487 501.139 223.389C501.139 215.29 494.575 208.725 486.479 208.725C478.382 208.725 471.818 215.29 471.818 223.389C471.818 231.487 478.382 238.052 486.479 238.052Z" fill="#FBBEBE"/>
<path d="M499.683 222.772C501.038 224.933 502.813 226.799 504.905 228.259C506.996 229.718 509.36 230.741 511.855 231.267L510.749 235.285C508.841 242.185 506.696 249.484 501.368 254.269C501.973 251.931 501.199 249.435 499.883 247.405C498.566 245.375 496.717 243.78 494.905 242.203L486.467 234.892C486.223 234.694 486.018 234.452 485.863 234.18C485.654 233.664 485.654 233.088 485.863 232.572C486.938 229.225 490.006 227.135 492.507 224.875C493.762 223.706 494.882 222.401 495.847 220.984C497.533 218.579 498.578 220.996 499.683 222.772Z" fill="#FBBEBE"/>
<path d="M467.167 208.646L466.835 205.891C469.148 206.495 471.347 204.526 472.827 202.49C474.307 200.453 475.678 198.055 477.931 197.203C480.668 196.176 483.567 197.807 486.183 199.185C489.111 200.81 492.325 201.856 495.648 202.266C496.178 202.284 496.704 202.369 497.213 202.52C498.916 203.124 499.725 205.263 499.973 207.202C500.221 209.142 500.154 211.202 500.994 212.93C501.598 214.241 502.722 215.214 503.41 216.507C505.222 219.975 503.471 224.718 505.361 228.119L500.662 223.812C500.233 223.419 499.629 223.008 499.152 223.34C498.777 223.606 498.747 224.18 498.596 224.639C498.143 225.981 496.464 226.379 495.249 225.848C494.035 225.316 493.147 224.162 492.229 223.111C490.151 220.658 487.675 218.501 484.775 217.455C483.504 216.98 482.147 216.781 480.793 216.87C479.439 216.96 478.12 217.336 476.923 217.975C474.73 219.214 473.123 222.102 470.435 222.204C466.75 222.343 465.216 215.48 463.513 212.767C464.136 212.298 464.574 211.624 464.751 210.864C464.928 210.104 464.832 209.306 464.479 208.61C464.727 208.507 467.113 208.223 467.167 208.646Z" fill="#464353"/>
<path d="M285.837 122.917C284.659 123.965 283.57 125.109 282.581 126.337C281.586 127.582 281.056 129.135 281.083 130.729C281.088 131.192 281.236 131.641 281.506 132.016C281.644 132.196 281.834 132.328 282.051 132.394C282.268 132.46 282.499 132.457 282.714 132.385C282.957 132.261 283.165 132.078 283.318 131.853C283.957 131.086 284.634 130.352 285.348 129.654C285.607 129.394 285.952 129.122 286.302 129.219C286.459 129.275 286.6 129.368 286.713 129.491C287.119 129.842 287.415 130.304 287.565 130.82C287.776 131.745 287.238 132.669 286.628 133.394C286.018 134.119 285.299 134.814 285.052 135.726C284.958 135.967 284.958 136.234 285.052 136.475C285.169 136.65 285.332 136.788 285.523 136.874C286.388 137.35 287.347 137.631 288.332 137.696C289.318 137.76 290.305 137.608 291.225 137.249C292.433 136.759 293.508 135.919 294.753 135.484C295.292 135.337 295.814 135.135 296.311 134.88C296.667 134.643 296.973 134.338 297.21 133.982C297.448 133.627 297.612 133.228 297.695 132.808C297.852 131.969 297.882 131.112 297.785 130.264C297.635 126.982 296.932 123.749 295.707 120.7C295.636 120.503 295.516 120.328 295.357 120.192C295.175 120.082 294.966 120.025 294.753 120.029C293.206 119.866 290.669 119.075 289.177 119.649C288.656 119.935 288.205 120.335 287.861 120.821C287.583 121.129 285.837 122.512 285.837 122.917Z" fill="#A1616A"/>
<path d="M285.348 121.552C285.348 120.078 283.536 116.519 286.417 116.283C286.417 114.706 284.188 113.727 284.605 112.054C284.738 111.498 285.209 111.045 285.263 110.477C285.444 108.864 282.533 107.988 283.016 106.441C283.197 105.837 283.838 105.486 283.977 104.888C284.303 103.492 281.808 102.87 281.76 101.438C281.76 100.955 282.032 100.502 282.007 100.018C282.007 99.4141 281.482 98.9549 281.192 98.4292C280.437 97.0819 280.805 94.9974 279.428 94.3026C280.34 94.3811 280.636 93.0277 280.262 92.2C279.887 91.3722 279.12 90.6533 279.114 89.7349C279.159 89.4021 279.159 89.0647 279.114 88.7319C278.86 87.8498 277.417 87.7773 277.175 86.9193C277.144 86.59 277.134 86.2591 277.145 85.9285C277.048 85.2457 276.347 84.8107 275.689 84.6174C275.005 84.5012 274.347 84.266 273.744 83.9225C273.321 83.6023 272.832 83.0706 272.379 83.3183C272.21 83.4211 272.125 83.6144 271.998 83.7594C271.455 84.3938 270.416 84.1159 269.733 83.6506C267.716 82.2791 266.713 79.8201 266.284 77.4214C265.855 75.0228 265.867 72.5456 265.33 70.1711C265.166 69.4311 264.947 68.7041 264.677 67.996C264.448 67.3918 263.711 66.4432 263.662 65.833C263.554 64.4433 266.429 65.3919 267.522 65.5309C268.584 65.6346 269.633 65.8368 270.657 66.1351C271.75 66.5481 272.821 67.018 273.865 67.5428C278.226 69.4702 283.493 69.7059 286.997 72.9443C288.151 74.0077 289.123 75.4034 290.621 75.8868C291.308 76.0185 291.986 76.1941 292.651 76.4124C294.312 77.1918 294.572 79.3971 295.478 80.9922C295.763 81.4134 296.011 81.8581 296.221 82.3214C296.395 82.8678 296.477 83.4397 296.462 84.0132L296.589 88.2002C296.795 95.2149 297 102.248 296.251 109.22C296.009 111.522 295.647 113.891 296.329 116.102C296.511 116.706 296.764 117.274 296.933 117.884C297.083 118.6 297.16 119.328 297.163 120.059L297.26 122.772C297.293 122.983 297.246 123.199 297.127 123.376C297.026 123.458 296.908 123.517 296.781 123.547C296.655 123.577 296.523 123.579 296.396 123.552C292.621 123.213 288.803 121.087 285.239 122.373" fill="#464353"/>
<path d="M457.635 329.999C482.309 329.999 502.311 327.107 502.311 323.54C502.311 319.973 482.309 317.081 457.635 317.081C432.962 317.081 412.96 319.973 412.96 323.54C412.96 327.107 432.962 329.999 457.635 329.999Z" fill="#504F60"/>
<path d="M496.071 323.854C495.286 320.489 494.796 317.534 494.796 317.534C494.796 317.534 494.978 313.873 493.335 311.124V310.205V303.438C493.802 302.21 494.374 301.023 495.044 299.892C496.252 297.765 495.044 289.971 495.044 289.971C495.044 289.971 490.532 278.98 491.625 272.008C492.719 265.036 482.359 241.049 482.359 241.049C482.423 238.736 482.749 236.437 483.332 234.198C483.442 233.727 483.487 233.243 483.464 232.76C483.464 232.699 483.464 232.645 483.464 232.584C483.464 232.524 483.464 232.621 483.464 232.639C483.307 228.041 479.671 219.425 479.671 219.425L480.16 203.003C480.16 203.003 482.48 193.336 478.699 180.316C477.376 175.778 476.53 172.147 475.992 169.343C475.932 169.029 475.872 168.739 475.823 168.431C483.609 167.223 489.559 166.256 489.559 166.256C489.559 166.256 485.041 147.351 481.991 144.04C478.94 140.729 476.5 130.331 476.5 130.331C476.5 130.331 474.911 116.984 477.478 113.081C480.046 109.178 480.408 102.447 480.408 102.447C480.408 102.447 486.261 98.2178 486.998 96.3025C487.735 94.3872 488.949 90.1578 488.949 87.9163C488.949 85.6747 488.218 83.6869 488.46 82.4785C488.702 81.2701 486.751 76.8051 487.729 74.6784C487.982 74.0251 488.113 73.3308 488.116 72.6302C488.118 72.6101 488.118 72.5898 488.116 72.5697C488.125 70.7086 487.953 68.8511 487.602 67.0232C485.909 65.5932 483.933 64.5369 481.803 63.9237L481.676 63.4162L481.344 62.087C481.159 61.9644 480.967 61.8514 480.77 61.7486V61.2653L480.716 59.3439L481.634 55.03C483.446 47.5259 473.425 46.4081 473.425 46.4081C472.817 45.2571 471.807 44.3707 470.586 43.9189C468.575 43.212 470.254 55.2052 471.19 56.0027C471.897 56.6069 474.084 60.3409 475.141 62.1897L475.31 62.4918C475.144 62.6406 474.991 62.8022 474.851 62.9751L475.231 65.5792L475.292 65.978C474.627 66.8029 474.088 67.7211 473.691 68.7029C473.691 68.7029 475.503 70.7088 475.159 72.9323C474.814 75.1557 475.721 77.9773 475.763 78.1283C475.654 78.0014 474.367 76.6118 473.081 76.9501C471.794 77.2885 468.2 78.37 468.2 78.37C468.2 78.37 465.518 78.8413 465.784 79.4334C466.05 80.0255 463.972 82.6235 463.972 82.6235L456.759 75.784C456.687 75.5786 456.608 75.3732 456.548 75.1799C456.254 74.1937 456.051 73.1824 455.944 72.1589C456.73 71.972 457.501 71.7277 458.251 71.4278C459.009 71.1676 459.693 70.7281 460.245 70.1469C460.976 69.2829 461.115 68.1108 461.411 67.0353C461.978 64.9327 463.223 63.0658 464.087 61.0659C465.549 57.6865 466.021 53.9606 465.446 50.3233C465.335 49.2024 464.956 48.1247 464.34 47.1815C463.162 45.5623 461.024 44.9037 459.472 43.6107C457.919 42.3177 456.916 40.342 455.104 39.3814C453.467 38.5053 451.48 38.608 449.632 38.9101C446.021 39.5055 442.554 40.7676 439.405 42.6319C438.354 43.2361 437.194 43.9793 435.986 43.7557C434.947 43.5684 434.174 42.7407 433.522 41.9431C433.529 41.9101 433.539 41.8778 433.552 41.8465C433.522 41.817 433.496 41.7846 433.473 41.7498C432.709 43.4466 432.325 45.2903 432.35 47.1513C432.35 47.4413 432.35 47.7555 432.386 48.0153V48.3174C432.386 48.402 432.386 48.4866 432.386 48.5651C432.386 48.6939 432.367 48.822 432.332 48.9458C432.179 49.3153 431.949 49.6473 431.655 49.9185C431.433 50.1704 431.231 50.4391 431.051 50.7221C431.051 50.6254 431.111 50.5287 431.148 50.426C430.687 51.0988 430.427 51.8889 430.399 52.7038C430.365 53.2971 430.559 53.8808 430.942 54.3352C431.304 54.6864 431.698 55.0021 432.12 55.2777C431.977 56.0753 431.904 56.8841 431.903 57.6945C431.916 60.0971 432.549 62.4555 433.741 64.5417C434.932 66.6278 436.642 68.3712 438.704 69.6031C438.789 69.8025 438.867 70.0079 438.946 70.2073C439.87 72.6241 440.565 75.4638 440.257 78.0619C440.257 78.2492 440.202 78.4425 440.172 78.6298C440.142 78.8171 439.991 78.8292 439.912 78.9319C439.912 78.9319 427.994 79.0527 425.192 76.5151C422.389 73.9775 418.112 82.7202 418.112 82.7202C418.112 82.7202 413.842 83.5479 412.984 82.7202C412.126 81.8924 407.131 82.6054 407.131 82.6054C405.084 80.7848 402.421 79.8126 399.683 79.8865C398.024 78.6255 396.193 77.6082 394.246 76.8656L394.113 76.8172C393.254 76.5039 392.335 76.3883 391.425 76.4789C391.425 76.4789 385.566 71.6453 383.856 69.0352C382.147 66.4251 374.01 56.7882 373.974 56.7459V56.2807L373.884 54.8789C373.642 54.9169 373.397 54.9371 373.153 54.9394C373.11 54.8004 373.05 54.6373 372.99 54.45C372.521 53.0827 371.943 51.7553 371.262 50.4804C371.262 50.4804 371.262 48.7101 371.775 48.263C372.289 47.8159 371.564 41.3208 371.564 41.3208C371.564 41.3208 366.285 28.9771 361.555 38.1911C361.555 38.1911 352.615 44.1545 360.117 51.1027C360.117 51.1027 363.137 52.5528 363.536 53.7008C363.814 54.4439 364.829 56.5284 365.511 57.9301L365.819 58.5343L365.735 58.6068L365.844 59.7669L365.892 60.214C364.478 61.0175 363.518 61.8151 363.754 62.4132C364.17 63.4368 364.456 64.5086 364.605 65.6034C364.605 65.6034 374.983 78.6056 376.324 84.1582C376.324 84.1582 404.153 100.701 413.304 101.879L411.685 110.126C411.449 112.364 411.328 114.613 411.323 116.863C411.443 118.633 410.223 126.669 410.223 126.669C410.223 126.669 408.635 138.487 407.294 140.143C405.953 141.798 406.194 148.885 406.194 148.885C405.878 152.278 405.271 155.638 404.382 158.927C403.041 163.416 404.014 168.975 404.014 168.975C404.014 168.975 399.381 179.609 410.483 172.401C410.483 172.401 415.919 172.062 422.214 171.845C422.214 172.05 422.214 172.262 422.214 172.449C422.214 173.259 422.214 174.135 422.171 175.053C422.087 181.143 422.051 189.554 422.328 195.886C422.818 207.112 426.237 229.328 426.237 229.328V240.511C426.016 241.56 425.907 242.63 425.91 243.702C425.838 247.637 426.886 251.511 428.931 254.873L429.788 262.317C429.788 262.317 431.794 267.223 431.83 270.171C431.822 270.409 431.794 270.646 431.746 270.878C431.667 271.254 431.635 271.637 431.649 272.02C431.534 275.404 433.57 283.5 433.57 283.5C433.57 283.5 433.691 291.65 434.911 292.128C435.956 292.533 433.515 296.822 432.791 298.055C432.771 297.979 432.757 297.903 432.748 297.825L432.597 298.067C432.345 298.727 432.217 299.427 432.217 300.133C432.148 300.69 432.239 301.254 432.478 301.761C432.718 302.268 433.096 302.697 433.57 302.997C435.889 304.417 437.134 305.595 435.165 306.067C434.44 306.179 433.722 306.33 433.014 306.52C433.014 306.429 432.942 306.332 432.911 306.248C432.634 306.356 432.402 306.558 432.255 306.817C432.109 307.077 432.057 307.38 432.108 307.674C432.127 308.632 432.373 309.572 432.827 310.417C434.778 314.791 436.131 316.459 436.131 316.459L437.067 316.356C436.929 316.714 436.746 317.053 436.524 317.365C436.167 317.872 435.695 318.286 435.146 318.573C434.635 318.88 434.065 319.075 433.473 319.147C432.812 319.169 432.162 319.329 431.567 319.619C430.971 319.908 430.444 320.32 430.018 320.827C428.81 322.404 428.037 324.549 430.441 326.434L439.169 329.455C439.169 329.455 454.186 331.406 453.389 328.035C452.591 324.664 452.108 321.715 452.108 321.715C452.173 319.657 451.759 317.611 450.9 315.74C450.743 315.434 450.565 315.139 450.368 314.858L450.9 314.803C450.9 314.803 451.999 307.353 453.461 305.94C453.799 305.613 453.878 305.335 453.799 305.166C453.951 304.761 453.564 304.526 453.075 304.387L452.966 304.683C452.488 304.579 452 304.524 451.51 304.52C451.51 304.52 451.021 300.623 452.61 299.203C452.738 299.041 452.831 298.854 452.884 298.655C452.937 298.455 452.949 298.247 452.918 298.043C452.93 297.508 452.873 296.974 452.748 296.454C452.733 296.487 452.715 296.52 452.694 296.55C451.897 293.01 449.191 287.385 449.191 287.385C449.191 287.385 449.07 283.844 450.048 282.424C451.027 281.005 449.922 263.163 449.922 263.163C449.922 263.163 450.29 254.541 449.191 250.523C448.091 246.505 450.532 241.774 450.532 241.774C450.532 241.774 450.532 241.684 450.532 241.52V241.46L450.393 240.101C450.389 240.129 450.389 240.157 450.393 240.185C450.145 237.901 449.68 233.763 449.336 231.853C448.846 229.135 449.462 216.144 449.462 216.144L451.655 210.586L455.563 220.162L459.713 232.923C459.713 232.923 461.767 235.618 461.815 238.361C461.815 238.493 461.815 238.626 461.815 238.759C461.782 239.042 461.766 239.327 461.767 239.611C461.693 241.223 462.136 242.817 463.029 244.161C463.029 244.161 464.129 250.203 465.838 251.719C467.548 253.236 467.548 256.208 467.548 256.208C467.548 256.208 469.62 264.957 470.568 266.48C471.389 267.773 471.432 271.313 471.426 272.419C471.426 272.618 471.426 272.733 471.426 272.733C471.426 272.733 471.716 275.863 471.704 278.485C471.704 278.811 471.704 279.126 471.704 279.422C471.706 279.4 471.706 279.377 471.704 279.355C471.703 280.072 471.618 280.785 471.45 281.482L471.414 281.603C471.414 281.452 471.414 281.307 471.456 281.162C471.031 282.942 470.828 284.769 470.852 286.599C470.798 289.741 471.275 293.463 473.177 295.662C476.476 299.445 478.548 298.973 478.548 298.973C478.548 298.973 476.965 303.698 475.008 304.647C474.934 304.682 474.865 304.726 474.802 304.78C474.802 304.683 474.766 304.592 474.754 304.502C474.536 304.737 474.369 305.016 474.265 305.32C474.161 305.624 474.122 305.946 474.15 306.266C474.011 308.344 475.322 311.704 476.566 313.268C477.028 313.721 477.595 314.053 478.215 314.235C478.117 314.305 478.014 314.367 477.907 314.423C477.69 314.542 477.466 314.649 477.237 314.743C476.919 314.878 476.583 314.965 476.24 315.003C475.578 315.02 474.927 315.179 474.331 315.469C473.735 315.759 473.208 316.172 472.785 316.682C471.577 318.253 470.804 320.398 473.208 322.283L481.936 325.304C481.936 325.304 496.856 327.219 496.071 323.854Z" fill="url(#paint0_linear)"/>
<path d="M438.74 329.437L430.284 326.416C427.952 324.531 428.695 322.386 429.873 320.809C430.278 320.306 430.787 319.896 431.364 319.606C431.941 319.316 432.574 319.154 433.219 319.129C433.792 319.056 434.342 318.86 434.832 318.555C435.368 318.264 435.828 317.85 436.173 317.347C436.79 316.367 437.123 315.236 437.134 314.078C437.134 314.078 446.412 311.359 448.949 314.078C449.402 314.57 449.78 315.126 450.072 315.728C450.915 317.604 451.328 319.646 451.281 321.703C451.281 321.703 451.752 324.652 452.519 328.023C453.286 331.394 438.74 329.437 438.74 329.437Z" fill="#2D293D"/>
<path d="M480.082 325.268L471.625 322.247C469.293 320.362 470.036 318.217 471.214 316.646C471.617 316.141 472.124 315.729 472.7 315.439C473.277 315.15 473.91 314.988 474.555 314.966C474.889 314.932 475.215 314.844 475.521 314.706C475.744 314.612 475.962 314.505 476.174 314.386C478.535 313.087 478.475 309.897 478.475 309.897C478.475 309.897 487.747 307.178 490.29 309.897C490.631 310.265 490.928 310.671 491.178 311.106C492.767 313.855 492.592 317.522 492.592 317.522C492.592 317.522 493.063 320.477 493.8 323.842C494.537 327.207 480.082 325.268 480.082 325.268Z" fill="#2D293D"/>
<path opacity="0.1" d="M448.955 314.072C449.408 314.564 449.786 315.12 450.078 315.722L436.185 317.335C436.802 316.355 437.135 315.224 437.146 314.066C437.146 314.066 446.418 311.353 448.955 314.072Z" fill="black"/>
<path opacity="0.1" d="M491.19 311.118V313.722C489.028 317.28 478.572 316.501 475.533 314.719C475.757 314.624 475.974 314.517 476.186 314.398C478.547 313.099 478.487 309.909 478.487 309.909C478.487 309.909 487.759 307.19 490.302 309.909C490.643 310.277 490.94 310.683 491.19 311.118Z" fill="black"/>
<path d="M492.839 299.892C492.193 301.026 491.641 302.213 491.19 303.438V312.773C488.822 316.67 476.542 315.371 474.881 313.244C473.22 311.118 471.486 305.583 473.353 304.623C475.219 303.662 476.778 298.949 476.778 298.949C476.778 298.949 474.766 299.42 471.577 295.638C468.387 291.856 469.336 283.47 469.928 281.464C470.52 279.458 469.928 272.721 469.928 272.721C469.928 272.721 470.048 267.99 469.106 266.456C468.164 264.921 466.152 256.184 466.152 256.184C466.152 256.184 466.152 253.23 464.497 251.695C462.842 250.16 461.779 244.131 461.779 244.131C460.811 242.624 460.395 240.828 460.601 239.049C460.951 236.095 458.59 232.905 458.59 232.905L454.573 220.138L450.791 210.568L448.665 216.12C448.665 216.12 448.061 229.116 448.55 231.829C449.04 234.542 449.758 241.756 449.758 241.756C449.758 241.756 447.397 246.481 448.46 250.499C449.523 254.517 449.136 263.151 449.136 263.151C449.136 263.151 450.199 280.986 449.251 282.406C448.303 283.826 448.423 287.373 448.423 287.373C448.423 287.373 453.256 297.765 451.734 299.185C450.211 300.605 450.67 304.502 450.67 304.502C450.67 304.502 453.975 304.502 452.561 305.922C451.148 307.341 450.079 314.785 450.079 314.785L435.793 316.459C435.793 316.459 434.488 314.809 432.597 310.417C430.707 306.024 432.948 306.52 434.85 306.042C436.753 305.565 435.551 304.393 433.304 302.973C431.057 301.553 432.362 298.363 432.362 298.363C432.362 298.363 435.787 292.575 434.603 292.104C433.419 291.632 433.304 283.476 433.304 283.476C433.304 283.476 430.942 273.809 431.534 271.186C432.126 268.564 429.643 262.329 429.643 262.329L428.816 254.885C426.288 250.661 425.366 245.668 426.218 240.82V229.34C426.218 229.34 422.908 207.13 422.437 195.904C422.135 188.714 422.22 178.902 422.316 172.781C422.377 169.35 422.437 167.072 422.437 167.072L473.467 161.755C473.467 161.755 473.419 164.111 474.392 169.337C474.917 172.141 475.733 175.772 477.013 180.31C480.674 193.306 478.433 202.991 478.433 202.991L477.956 219.419C477.956 219.419 482.444 230.403 481.501 234.186C480.932 236.431 480.612 238.733 480.547 241.049C480.547 241.049 490.586 265.036 489.523 272.008C488.46 278.981 492.827 289.971 492.827 289.971C492.827 289.971 494.023 297.765 492.839 299.892Z" fill="#464353"/>
<path opacity="0.05" d="M463.664 238.336L479.2 236.264C479.2 236.264 470.399 245.248 463.664 238.336Z" fill="black"/>
<path opacity="0.1" d="M476.953 221.081C476.953 221.081 477.484 226.579 474.12 228.645C474.12 228.645 480.142 227.703 476.953 221.081Z" fill="black"/>
<path opacity="0.1" d="M475.998 203.595C475.998 203.595 463.011 214.289 458.288 213.401C453.564 212.513 475.998 203.595 475.998 203.595Z" fill="black"/>
<path opacity="0.1" d="M444.406 243.351C444.406 243.351 434.542 245.593 434.246 249.556C433.95 253.52 444.406 243.351 444.406 243.351Z" fill="black"/>
<path opacity="0.05" d="M446.575 292.629C446.575 292.629 432.64 295.227 436.596 296.998C440.553 298.768 447.052 300.188 447.052 300.188C447.052 300.188 451.552 300.423 446.575 292.629Z" fill="black"/>
<g opacity="0.05">
<path opacity="0.05" d="M433.781 299.813C433.431 299.594 433.134 299.299 432.914 298.95C432.693 298.6 432.554 298.206 432.507 297.795L432.362 298.043C432.362 298.043 431.063 301.233 433.31 302.647C433.564 302.81 433.811 302.973 434.035 303.13C434.452 303.052 434.899 302.991 435.328 302.882C437.23 302.411 436.028 301.233 433.781 299.813Z" fill="black"/>
<path opacity="0.05" d="M451.734 298.865C452.12 298.514 452.108 297.608 451.873 296.448C451.268 297.36 451.093 298.786 451.081 299.867C451.228 299.492 451.45 299.151 451.734 298.865Z" fill="black"/>
<path opacity="0.05" d="M449.589 240.083C449.076 241.48 448.759 242.942 448.647 244.427C448.916 243.401 449.278 242.402 449.728 241.442L449.589 240.083Z" fill="black"/>
<path opacity="0.05" d="M481.507 233.883C481.6 233.459 481.643 233.025 481.634 232.59C481.459 233.473 481.338 234.288 481.248 235.007C481.326 234.639 481.411 234.288 481.507 233.883Z" fill="black"/>
<path opacity="0.05" d="M449.257 282.092C449.45 281.802 449.559 280.823 449.607 279.464C449.17 280.516 448.939 281.642 448.925 282.781C449.007 282.539 449.119 282.307 449.257 282.092Z" fill="black"/>
<path opacity="0.05" d="M452.156 304.375C451.424 306.745 450.881 309.169 450.532 311.625L436.246 313.275C436.246 313.275 434.941 311.625 433.05 307.233C432.898 306.893 432.763 306.546 432.646 306.193C431.788 306.586 431.438 307.474 432.573 310.066C434.464 314.441 435.775 316.108 435.775 316.108L450.06 314.453C450.06 314.453 451.124 307.009 452.537 305.589C453.262 304.906 452.815 304.55 452.156 304.375Z" fill="black"/>
<path opacity="0.05" d="M433.31 283.156C433.31 283.156 433.425 291.306 434.609 291.777C435.213 290.43 435.605 289.149 435.074 288.938C433.866 288.466 433.775 280.31 433.775 280.31C433.775 280.31 431.413 270.643 432.005 268.02C432.597 265.398 430.115 259.163 430.115 259.163L429.287 251.719C426.76 247.495 425.837 242.502 426.69 237.654V226.174C426.69 226.174 423.379 203.964 422.908 192.738C422.606 185.548 422.691 175.736 422.787 169.615C422.787 168.51 422.824 167.531 422.842 166.703L422.437 166.745C422.437 166.745 422.371 169.017 422.316 172.455C422.22 178.576 422.129 188.388 422.437 195.572C422.908 206.797 426.212 229.014 426.212 229.014V240.493C425.365 245.341 426.289 250.331 428.816 254.553L429.637 261.997C429.637 261.997 432.12 268.256 431.528 270.86C430.936 273.464 433.31 283.156 433.31 283.156Z" fill="black"/>
<path opacity="0.05" d="M475.364 310.091C474.204 308.41 473.43 306.493 473.099 304.478C471.643 305.795 473.316 310.906 474.911 312.936C476.56 315.063 488.847 316.362 491.22 312.459V310.211C488.001 313.371 476.923 312.102 475.364 310.091Z" fill="black"/>
<path opacity="0.05" d="M493.317 296.738C492.669 297.873 492.115 299.059 491.661 300.284V301.958C491.933 301.354 492.314 300.544 492.87 299.59C493.243 298.659 493.42 297.661 493.389 296.659C493.389 296.659 493.335 296.714 493.317 296.738Z" fill="black"/>
<path opacity="0.05" d="M476.089 298.605C476.538 297.695 476.928 296.756 477.255 295.795C477.255 295.795 475.243 296.267 472.054 292.484C469.734 289.735 469.601 284.539 469.934 281.144C469.33 283.156 468.393 291.542 471.583 295.324C473.667 297.795 475.243 298.448 476.089 298.605Z" fill="black"/>
<path opacity="0.05" d="M469.928 272.401C470.136 274.729 470.215 277.067 470.163 279.403C470.222 279.034 470.303 278.669 470.405 278.31C471.009 276.298 470.405 269.567 470.405 269.567C470.405 269.567 470.526 264.836 469.577 263.302C468.629 261.767 466.654 253.018 466.654 253.018C466.654 253.018 466.654 250.064 464.999 248.529C463.343 246.994 462.28 240.965 462.28 240.965C461.304 239.461 460.877 237.666 461.072 235.883C461.429 232.929 459.067 229.739 459.067 229.739L455.05 216.978L451.269 207.408L449.136 212.966C449.136 212.966 449.136 213.667 449.064 214.779L450.791 210.266L454.573 219.818L458.59 232.578C458.59 232.578 460.951 235.769 460.595 238.723C460.4 240.505 460.827 242.301 461.803 243.804C461.803 243.804 462.866 249.846 464.521 251.369C466.176 252.891 466.17 255.858 466.17 255.858C466.17 255.858 468.182 264.601 469.124 266.129C470.067 267.658 469.928 272.401 469.928 272.401Z" fill="black"/>
</g>
<path d="M479.846 55.0119L478.958 59.3258L479.013 61.2472L479.049 62.661L474.12 63.1685L473.57 62.1474C472.549 60.2986 470.429 56.5405 469.746 55.9605C468.834 55.1992 467.209 43.1999 469.142 43.9128C470.332 44.3725 471.309 45.2573 471.885 46.3961C471.885 46.3961 481.592 47.5078 479.846 55.0119Z" fill="#FFCDD3"/>
<path opacity="0.1" d="M479.049 62.6609L474.12 63.1685L473.57 62.1474C474.233 61.3924 475.137 60.8907 476.128 60.7277C477.12 60.5646 478.137 60.7504 479.007 61.2532L479.049 62.6609Z" fill="black"/>
<path d="M480.293 64.9992L473.794 66.5036L473.655 65.5369L473.286 62.9328C473.286 62.9328 475.859 59.501 479.58 62.0749L479.907 63.3981L480.293 64.9992Z" fill="#6C63FF"/>
<path d="M375.007 55.4831L368.067 59.205L367.462 57.8999C366.804 56.5163 365.819 54.4318 365.548 53.6705C365.137 52.5226 362.243 51.0725 362.243 51.0725C354.995 44.1303 363.633 38.1609 363.633 38.1609C368.212 28.9469 373.298 41.2906 373.298 41.2906C373.298 41.2906 374.01 47.7978 373.509 48.2328C373.008 48.6678 373.008 50.4502 373.008 50.4502C373.669 51.7272 374.229 53.0545 374.681 54.4197C374.892 55.0783 375.007 55.4831 375.007 55.4831Z" fill="#FFCDD3"/>
<path opacity="0.1" d="M375.007 55.4831L368.066 59.205L367.462 57.8999C368.441 57.0782 371.914 54.2747 373.056 54.3895C373.601 54.4576 374.151 54.4717 374.699 54.4318C374.892 55.0783 375.007 55.4831 375.007 55.4831Z" fill="black"/>
<path d="M375.714 57.5797L367.915 61.4224L367.758 59.7487L367.65 58.5887C367.65 58.5887 372.168 54.7158 373.503 54.8669C374.178 54.9647 374.864 54.9647 375.539 54.8669L375.629 56.2686L375.714 57.5797Z" fill="#6C63FF"/>
<path d="M460.945 83.6688C460.945 83.6688 426.949 87.5054 433.304 85.4391C437.726 83.9951 439.483 81.2097 439.852 78.0679C440.154 75.4518 439.477 72.6302 438.589 70.2134C437.79 68.0694 436.779 66.0109 435.569 64.0687C435.569 64.0687 461.543 49.7735 456.355 62.7697C455.554 64.7355 455.057 66.8114 454.881 68.9265C454.725 71.0283 454.952 73.1411 455.551 75.1617C456.531 78.4405 458.398 81.3845 460.945 83.6688Z" fill="#FFCDD3"/>
<path opacity="0.1" d="M456.336 62.7516C455.536 64.7173 455.039 66.7933 454.863 68.9083C452.416 70.9686 449.734 70.8297 446.285 70.8297C443.639 70.8297 440.704 71.4701 438.589 70.1953C437.79 68.0513 436.779 65.9928 435.569 64.0506C435.569 64.0506 461.537 49.7554 456.336 62.7516Z" fill="black"/>
<path d="M445.826 71.736C453.589 71.736 459.882 65.4413 459.882 57.6764C459.882 49.9115 453.589 43.6168 445.826 43.6168C438.063 43.6168 431.77 49.9115 431.77 57.6764C431.77 65.4413 438.063 71.736 445.826 71.736Z" fill="#FFCDD3"/>
<path opacity="0.1" d="M460.945 83.6688C460.945 83.6688 426.949 87.5054 433.304 85.4391C437.726 83.995 439.483 81.2097 439.852 78.0679C441.543 76.2553 444.944 74.908 447.101 74.2071C449.094 73.5365 451.247 73.5006 453.262 74.1044C454.054 74.3432 454.809 74.693 455.503 75.1436C456.493 78.4344 458.377 81.3856 460.945 83.6688Z" fill="black"/>
<path opacity="0.1" d="M480.293 64.9992L473.794 66.5036L473.655 65.5369C474.35 64.5808 475.324 63.8624 476.443 63.4797C477.562 63.097 478.771 63.0685 479.907 63.3981L480.293 64.9992Z" fill="black"/>
<path opacity="0.1" d="M375.714 57.5797L367.915 61.4224L367.758 59.7487C370.284 58.3903 372.909 57.2249 375.611 56.2625L375.714 57.5797Z" fill="black"/>
<path opacity="0.1" d="M474.392 169.35C461.217 171.452 442.492 174.135 439.52 173.228C437.049 172.479 429.172 172.558 422.316 172.793C422.377 169.362 422.437 167.084 422.437 167.084L473.467 161.767C473.467 161.767 473.419 164.123 474.392 169.35Z" fill="black"/>
<path d="M487.524 166.256C487.524 166.256 444.171 173.7 439.52 172.298C434.869 170.896 410.978 172.413 410.978 172.413C400.226 179.621 404.714 168.987 404.714 168.987C404.714 168.987 403.772 163.434 405.071 158.945C405.943 155.649 406.539 152.286 406.853 148.892C406.853 148.892 406.617 141.798 407.916 140.143C409.214 138.487 410.755 126.675 410.755 126.675C410.755 126.675 411.933 118.64 411.818 116.869C411.703 115.099 412.168 110.132 412.168 110.132L413.709 101.861C404.847 100.683 377.913 84.14 377.913 84.14C376.614 78.5875 366.574 65.5913 366.574 65.5913C366.428 64.4984 366.15 63.4273 365.747 62.4011C365.04 60.51 375.671 56.7278 375.671 56.7278C375.671 56.7278 383.585 66.3949 385.24 69.0171C386.895 71.6393 392.561 76.4607 392.561 76.4607C393.441 76.3702 394.33 76.486 395.158 76.7991L395.297 76.8414C397.196 77.587 398.976 78.6046 400.583 79.8624C403.246 79.7992 405.83 80.7741 407.789 82.5812C407.789 82.5812 412.621 81.8683 413.461 82.696C414.301 83.5238 418.42 82.696 418.42 82.696C418.42 82.696 422.552 73.9533 425.27 76.491C427.988 79.0286 439.52 78.9077 439.52 78.9077C441.054 76.8656 444.793 75.4034 447.131 74.6784C449.125 74.0105 451.277 73.9747 453.292 74.5757C454.161 74.8351 454.979 75.244 455.708 75.7841L462.721 82.6356C462.721 82.6356 464.727 80.0315 464.491 79.4455C464.256 78.8594 466.853 78.3821 466.853 78.3821C466.853 78.3821 470.278 77.3187 471.577 76.9622C472.875 76.6058 474.065 78.0135 474.174 78.1404C474.132 77.9894 473.244 75.1194 473.57 72.9443C473.896 70.7692 472.151 68.715 472.151 68.715C476.282 58.5524 485.615 67.0595 485.615 67.0595C485.615 67.0595 486.678 72.612 485.736 74.7388C484.793 76.8656 486.678 81.3547 486.442 82.5389C486.207 83.7232 486.92 85.7291 486.92 87.9767C486.92 90.2243 485.712 94.4718 485.029 96.3629C484.346 98.254 478.65 102.508 478.65 102.508C478.65 102.508 478.294 109.244 475.811 113.141C473.328 117.038 474.887 130.367 474.887 130.367C474.887 130.367 477.249 140.765 480.203 144.076C483.156 147.387 487.524 166.256 487.524 166.256Z" fill="#3F3D56"/>
<path opacity="0.1" d="M424.328 88.5084C424.328 88.5084 423.029 84.6113 421.845 84.279C420.67 83.8466 419.525 83.3338 418.42 82.7444L419.181 81.2883C419.181 81.2883 423.615 82.4967 424.328 83.8078C425.041 85.1189 424.328 88.5084 424.328 88.5084Z" fill="black"/>
<path opacity="0.1" d="M400.583 79.8865C400.347 81.0949 389.83 82.1281 389.83 82.1281L395.146 76.7991L395.279 76.8474C397.185 77.5971 398.972 78.6209 400.583 79.8865Z" fill="black"/>
<path d="M370.163 64.6125C370.683 64.6125 371.105 64.1905 371.105 63.67C371.105 63.1494 370.683 62.7274 370.163 62.7274C369.642 62.7274 369.22 63.1494 369.22 63.67C369.22 64.1905 369.642 64.6125 370.163 64.6125Z" fill="#575988"/>
<path d="M371.371 66.5036C371.891 66.5036 372.313 66.0816 372.313 65.5611C372.313 65.0405 371.891 64.6185 371.371 64.6185C370.85 64.6185 370.428 65.0405 370.428 65.5611C370.428 66.0816 370.85 66.5036 371.371 66.5036Z" fill="#575988"/>
<path d="M372.555 68.2498C373.075 68.2498 373.497 67.8278 373.497 67.3072C373.497 66.7867 373.075 66.3647 372.555 66.3647C372.034 66.3647 371.612 66.7867 371.612 67.3072C371.612 67.8278 372.034 68.2498 372.555 68.2498Z" fill="#575988"/>
<path d="M373.793 70.1348C374.313 70.1348 374.735 69.7128 374.735 69.1923C374.735 68.6717 374.313 68.2497 373.793 68.2497C373.272 68.2497 372.851 68.6717 372.851 69.1923C372.851 69.7128 373.272 70.1348 373.793 70.1348Z" fill="#575988"/>
<path d="M485.144 69.8569C485.567 69.8569 485.911 69.5134 485.911 69.0896C485.911 68.6658 485.567 68.3223 485.144 68.3223C484.72 68.3223 484.377 68.6658 484.377 69.0896C484.377 69.5134 484.72 69.8569 485.144 69.8569Z" fill="#575988"/>
<path d="M485.265 71.603C485.688 71.603 486.032 71.2595 486.032 70.8357C486.032 70.4119 485.688 70.0684 485.265 70.0684C484.841 70.0684 484.497 70.4119 484.497 70.8357C484.497 71.2595 484.841 71.603 485.265 71.603Z" fill="#575988"/>
<path d="M485.367 73.3431C485.791 73.3431 486.134 72.9996 486.134 72.5758C486.134 72.152 485.791 71.8085 485.367 71.8085C484.943 71.8085 484.6 72.152 484.6 72.5758C484.6 72.9996 484.943 73.3431 485.367 73.3431Z" fill="#575988"/>
<path opacity="0.1" d="M424.37 120.531C424.255 120.392 450.888 154.027 471.559 134.59C471.577 134.596 438.916 139.025 424.37 120.531Z" fill="black"/>
<path opacity="0.1" d="M409.088 138.016C409.088 138.016 425.022 138.451 426.69 143.037V147.81C426.236 148.062 425.726 148.194 425.207 148.194C424.688 148.194 424.177 148.062 423.724 147.81C422.117 146.94 412.482 142.046 409.088 144.402V138.016Z" fill="black"/>
<path d="M409.384 138.016C409.384 138.016 424.624 138.433 426.219 142.807V147.351C425.784 147.592 425.296 147.719 424.799 147.719C424.302 147.719 423.814 147.592 423.379 147.351C421.845 146.529 412.633 141.859 409.384 144.106V138.016Z" fill="#3F3D56"/>
<path opacity="0.1" d="M417.786 103.408C419.414 107.177 421.489 110.737 423.965 114.011C426.659 117.631 429.923 120.787 433.63 123.358C433.63 123.358 418.052 105.595 417.786 103.408Z" fill="black"/>
<path opacity="0.1" d="M412.573 84.8893C412.573 84.8893 415.231 96.3689 422.081 100.266L412.573 84.8893Z" fill="black"/>
<path opacity="0.1" d="M408.496 86.0493C408.429 85.8378 406.134 95.1122 417.327 100.266C417.327 100.266 412.573 98.6528 408.496 86.0493Z" fill="black"/>
<path opacity="0.1" d="M478.076 78.3519C477.901 78.3519 483.597 81.977 485.15 83.6688C485.15 83.6688 481.441 78.1102 478.076 78.3519Z" fill="black"/>
<path d="M442.027 70.4188C442.029 70.7255 442.094 71.0285 442.219 71.3085C442.345 71.5885 442.526 71.8395 442.754 72.0457C442.981 72.2518 443.248 72.4085 443.539 72.506C443.829 72.6035 444.137 72.6396 444.443 72.612C448.725 72.8779 453.189 73.0652 457.128 71.4036C457.866 71.1399 458.53 70.7003 459.061 70.1227C459.761 69.2587 459.9 68.0866 460.184 67.0111C460.74 64.9085 461.924 63.0416 462.776 61.0417C464.217 57.6629 464.699 53.9524 464.171 50.3173C464.06 49.203 463.692 48.1297 463.096 47.1815C461.96 45.5562 459.888 44.8976 458.384 43.6047C456.88 42.3117 455.914 40.336 454.156 39.3753C452.573 38.4932 450.634 38.6019 448.852 38.904C445.347 39.4994 441.989 40.7607 438.958 42.6198C437.937 43.224 436.82 43.9672 435.648 43.7436C434.621 43.5503 433.872 42.6863 433.232 41.8767C432.408 43.8102 432.062 45.9137 432.223 48.0092C432.267 48.3168 432.257 48.6297 432.193 48.9337C432.045 49.3011 431.82 49.6328 431.534 49.9064C430.477 51.1148 429.819 53.0784 430.864 54.3231C431.317 54.8608 432.017 55.1569 432.458 55.7067C433.25 56.6915 432.984 58.1234 432.966 59.3802C432.922 59.819 433.033 60.2593 433.28 60.6248C433.508 60.8379 433.788 60.9882 434.092 61.0613C434.396 61.1343 434.713 61.1276 435.013 61.0417C435.612 60.8614 436.24 60.8018 436.862 60.8665C437.517 61.0795 438.082 61.5047 438.469 62.0749C440.42 64.6185 441.193 67.3857 442.027 70.4188Z" fill="#2D293D"/>
<g opacity="0.1">
<path opacity="0.1" d="M459.562 69.0533C459.031 69.6309 458.368 70.0705 457.629 70.3342C453.667 71.9837 449.209 71.7964 444.944 71.5426C444.486 71.5472 444.034 71.4458 443.621 71.2465C442.969 70.8659 442.721 70.0684 442.522 69.3433C441.688 66.3224 440.921 63.5491 438.94 61.0296C438.558 60.4485 437.992 60.0123 437.333 59.791C436.711 59.7324 436.084 59.7918 435.485 59.9662C435.185 60.0529 434.868 60.0606 434.564 59.9886C434.26 59.9167 433.98 59.7674 433.751 59.5554C433.504 59.1898 433.393 58.7496 433.437 58.3108C433.437 57.042 433.721 55.6221 432.93 54.6373C432.489 54.0874 431.788 53.7914 431.335 53.2476C431.039 52.8467 430.858 52.3732 430.81 51.8774C430.762 51.3816 430.85 50.8821 431.063 50.4321C430.308 51.6405 429.988 53.157 430.864 54.1962C431.317 54.7339 432.017 55.03 432.458 55.5798C433.25 56.5707 432.984 57.9966 432.966 59.2533C432.919 59.6915 433.028 60.132 433.274 60.4979C433.503 60.712 433.784 60.863 434.089 60.9361C434.394 61.0091 434.712 61.0018 435.014 60.9148C435.612 60.7345 436.24 60.675 436.862 60.7396C437.517 60.9526 438.082 61.3778 438.469 61.948C440.444 64.4675 441.217 67.2347 442.051 70.2678C442.148 71.0141 442.521 71.6971 443.096 72.183C443.51 72.3827 443.965 72.482 444.425 72.4731C448.707 72.7389 453.171 72.9322 457.11 71.2647C457.849 71.0027 458.513 70.5628 459.043 69.9838C459.309 69.6434 459.513 69.259 459.647 68.8479C459.653 68.9264 459.61 68.9929 459.562 69.0533Z" fill="black"/>
<path opacity="0.1" d="M432.223 48.5651C432.413 48.359 432.559 48.1164 432.652 47.8522C432.706 47.5464 432.706 47.2335 432.652 46.9277C432.534 45.2051 432.758 43.4763 433.31 41.8404L433.232 41.7498C432.405 43.6804 432.059 45.7826 432.223 47.8763C432.241 48.1056 432.241 48.3359 432.223 48.5651Z" fill="black"/>
</g>
<path opacity="0.1" d="M439.52 78.9379C439.52 78.9379 457.079 81.2701 458.656 78.6298L439.52 78.9379Z" fill="black"/>
<path opacity="0.1" d="M473.655 71.6695C473.655 71.6695 483.416 71.6695 485.56 75.343L473.655 71.6695Z" fill="black"/>
<path d="M528.267 398.025C525.372 400.614 521.609 402.02 517.726 401.964C516.736 401.964 515.364 402.152 515.358 403.142C515.382 403.433 515.482 403.712 515.648 403.952C516.874 405.996 518.809 407.516 521.085 408.224C523.199 408.864 525.458 408.755 527.663 408.641L534.096 408.308C535.304 408.242 536.512 408.181 537.72 408.03C538.928 407.879 540.245 407.632 541.508 407.426C544.61 406.985 547.747 406.839 550.876 406.991C551.71 407.021 552.689 406.991 553.184 406.387C553.679 405.783 553.426 404.629 553.238 403.722C552.852 401.856 553.238 399.898 552.882 398.025C552.278 394.738 549.433 392.219 546.316 391.028C543.416 389.929 538.282 388.666 535.54 390.503C532.646 392.43 530.876 395.65 528.267 398.025Z" fill="#3F3D56"/>
<path d="M534.658 287.904C535.226 290.605 537.841 292.672 537.914 295.427C537.98 297.638 536.403 299.493 535.268 301.384C534.198 303.343 533.295 305.388 532.568 307.498C530.43 312.993 527.776 318.273 524.643 323.268C523.132 325.685 521.441 328.265 521.785 331.074C522.026 332.388 522.49 333.651 523.157 334.808L527.687 343.811C528.679 345.608 529.456 347.516 530.001 349.496C530.393 351.206 530.429 352.976 530.659 354.716C531.372 360.239 533.963 365.797 532.429 371.15C532.296 371.61 531.825 372.165 531.456 371.845C532.954 374.643 534.156 377.458 534.042 380.63C533.981 382.292 533.474 384.026 534.084 385.572C534.344 386.219 534.797 386.823 534.791 387.518C534.791 387.977 534.579 388.406 534.531 388.853C534.404 390.128 535.576 391.191 536.79 391.596C538.004 392.001 539.327 391.971 540.553 392.339C542.909 393.046 544.594 395.076 546.594 396.484C548.645 397.898 551.062 398.685 553.552 398.75C553.908 398.788 554.266 398.716 554.579 398.544C554.757 398.389 554.899 398.198 554.997 397.983C555.095 397.769 555.146 397.536 555.147 397.3C555.257 396.171 555.087 395.033 554.653 393.986C554.219 392.939 553.534 392.014 552.658 391.294C552.275 391.054 551.957 390.722 551.734 390.327C551.621 389.979 551.593 389.608 551.65 389.246C552.014 384.294 551.925 379.319 551.384 374.383C551.14 372.818 551.061 371.233 551.148 369.652C551.275 368.335 551.674 367.03 551.529 365.719C551.384 364.408 550.713 363.211 550.321 361.948C549.62 359.701 549.813 357.284 549.717 354.934C549.596 350.849 548.66 346.838 547.729 342.85C547.361 341.285 546.956 339.648 545.851 338.488C544.908 337.503 543.386 336.56 543.743 335.249C543.94 334.766 544.234 334.328 544.606 333.962C545.044 333.413 545.365 332.781 545.55 332.103C545.735 331.426 545.78 330.718 545.682 330.023C546.079 330.124 546.499 330.084 546.87 329.91C547.242 329.736 547.541 329.439 547.717 329.068C555.075 325.594 561.006 318.646 563.652 310.942C563.808 310.37 564.048 309.825 564.365 309.323C565.048 308.369 566.231 307.958 567.283 307.432C570.581 305.77 572.858 302.659 574.948 299.614C576.156 297.85 577.364 296.025 577.908 293.946C578.194 292.602 578.329 291.23 578.312 289.856L578.5 282.757C578.541 282.289 578.496 281.818 578.367 281.367C578.188 280.946 577.927 280.564 577.6 280.243C575.591 278.118 572.952 276.695 570.073 276.183C568.14 275.839 566.165 275.905 564.208 275.742C560.414 275.428 556.669 274.25 552.876 274.534C546.914 274.975 541.604 279.107 538.795 284.388C537.811 286.249 536.772 287.868 534.658 287.904Z" fill="#464353"/>
<path d="M501.556 241.744C501.636 242.84 501.488 243.941 501.121 244.976C500.656 245.967 499.49 246.741 498.469 246.336C498.777 245.641 497.962 244.85 497.201 244.934C496.826 245.021 496.478 245.196 496.187 245.447C495.895 245.697 495.669 246.015 495.527 246.372C495.023 247.387 494.854 248.536 495.044 249.653C495.286 251.043 496.089 252.378 495.878 253.774C495.709 254.934 494.857 256.088 495.31 257.163C495.604 257.654 495.973 258.097 496.403 258.474C497 259.21 497.292 260.146 497.219 261.09C497.146 262.034 496.713 262.915 496.011 263.549L507.439 263.779C507.022 265.688 507.88 267.64 508.859 269.338C511.6 274.005 515.384 277.974 519.916 280.934C524.448 283.893 529.603 285.762 534.978 286.394C534.687 286.564 534.438 286.796 534.248 287.074C534.058 287.352 533.932 287.668 533.88 288.001C533.827 288.333 533.849 288.673 533.944 288.996C534.039 289.319 534.204 289.617 534.428 289.868C535.359 290.793 536.935 290.678 538.101 290.08C539.267 289.481 540.179 288.491 541.242 287.723C543.119 286.393 545.408 285.776 547.699 285.983C549.131 286.122 550.52 286.587 551.958 286.66C556.186 286.883 559.811 283.838 563.882 282.594C566.848 281.681 570.212 281.681 572.701 279.826C573.776 279.029 574.658 277.718 574.344 276.425C574.084 275.682 573.673 275.001 573.136 274.425C571.704 272.57 570.859 270.341 569.832 268.232C567.797 264.057 564.996 260.302 561.574 257.163C558.992 254.905 556.255 252.83 553.383 250.952C552.689 250.44 551.949 249.993 551.173 249.617C550.17 249.176 549.058 248.964 548.152 248.408C546.811 247.562 546.038 246.07 545.005 244.868C542.74 242.221 539.261 241.007 536.47 238.928C534.597 237.533 532.942 235.696 530.707 235.025C529.62 234.693 528.466 234.669 527.379 234.343C524.908 233.593 523.108 231.4 520.686 230.512C518.771 229.811 516.657 229.992 514.646 229.745C512.378 229.465 510.212 228.64 508.333 227.34C507.728 226.847 507.049 226.451 506.322 226.168C503.259 225.237 503.012 230.941 502.697 232.917C502.293 235.853 501.556 238.771 501.556 241.744Z" fill="#6C63FF"/>
<path d="M504.54 260.873C505.053 266.444 500.849 271.839 502.075 277.295C502.335 278.455 502.836 279.561 503.018 280.739C503.531 283.971 501.598 287.034 499.756 289.741L483.93 312.972C483.294 313.992 482.535 314.93 481.67 315.764C478.65 318.453 474.108 318.181 470.133 318.978C467.341 319.552 464.704 320.718 462.401 322.398C462.297 322.478 462.229 322.596 462.211 322.726C462.193 322.856 462.227 322.987 462.304 323.093C462.961 323.987 463.83 324.702 464.834 325.174C465.837 325.645 466.942 325.858 468.049 325.794C468.466 326.337 468.049 327.147 467.475 327.54C466.63 328.144 465.458 328.283 465.289 329.727C465.231 330.229 465.333 330.736 465.578 331.177C466.218 332.15 467.209 332.839 468.345 333.098C473.824 334.778 479.743 331.829 483.845 327.824C487.946 323.818 490.888 318.761 494.911 314.688C497.14 312.429 499.671 310.501 501.967 308.314C506.545 303.946 510.109 298.647 513.54 293.336C514.573 291.735 515.618 290.092 516.047 288.237C516.476 286.382 516.276 284.503 516.766 282.708C517.406 280.358 519.128 278.479 520.559 276.509C523.368 272.643 525.247 267.912 524.872 263.145C524.498 258.378 521.55 253.677 517.056 252.058C515.662 251.504 514.127 251.41 512.676 251.792C510.834 252.36 509.475 253.882 508.218 255.344L505.198 258.813C504.463 259.581 503.886 260.486 503.501 261.477C503.306 261.976 503.259 262.521 503.367 263.046C503.474 263.572 503.73 264.055 504.105 264.438" fill="#FBBEBE"/>
<path d="M512.562 238.022C510.484 238.143 508.194 238.348 506.726 239.835C506.111 240.517 505.613 241.297 505.253 242.143C503.827 245.049 502.438 248.088 502.335 251.327C502.25 253.913 502.999 256.444 503.392 259C503.718 261.127 502.891 263.296 502.734 265.447C505.313 264.655 508.72 263.58 511.057 262.244C512.652 261.332 514.193 260.293 515.932 259.713C518.415 258.885 522.577 260.317 524.939 261.465C525.065 259.809 523.821 256.921 523.954 255.26C523.972 254.56 524.097 253.868 524.322 253.206C524.676 252.505 525.094 251.84 525.573 251.218C526.472 249.756 526.885 248.047 526.754 246.335C526.623 244.624 525.954 242.997 524.842 241.69C522.746 239.333 519.466 238.451 516.337 238.064C514.366 237.836 512.381 237.767 510.399 237.859" fill="#6C63FF"/>
<defs>
<linearGradient id="paint0_linear" x1="426.593" y1="329.999" x2="426.593" y2="34.7532" gradientUnits="userSpaceOnUse">
<stop stop-color="#808080" stop-opacity="0.25"/>
<stop offset="0.54" stop-color="#808080" stop-opacity="0.12"/>
<stop offset="1" stop-color="#808080" stop-opacity="0.1"/>
</linearGradient>
</defs>
</svg>
