<svg width="65" height="65" viewBox="0 0 65 65" fill="none" xmlns="http://www.w3.org/2000/svg">
<path d="M32.5 29.7917H62.2917V2.70837L32.5 5.41671V29.7917Z" fill="#6C63FF"/>
<path d="M27.0833 29.7919V5.9093L2.70834 8.1252V29.7919H27.0833Z" fill="#6C63FF"/>
<path opacity="0.2" d="M32.5 5.41671V6.09379L62.2917 3.38546V2.70837L32.5 5.41671Z" fill="white"/>
<path opacity="0.1" d="M62.2917 29.1146H32.5V29.7917H62.2917V29.1146Z" fill="black"/>
<path opacity="0.2" d="M2.70834 8.1252V8.80228L27.0833 6.58639V5.9093L2.70834 8.1252Z" fill="white"/>
<path opacity="0.1" d="M27.0833 29.1146H2.70834V29.7917H27.0833V29.1146Z" fill="black"/>
<path d="M32.5 35.2084H62.2917V62.2917L32.5 59.5834V35.2084Z" fill="#6C63FF"/>
<path d="M27.0833 35.2084V59.0909L2.70834 56.875V35.2084H27.0833Z" fill="#6C63FF"/>
<path opacity="0.1" d="M32.5 59.5833V58.9062L62.2917 61.6146V62.2917L32.5 59.5833Z" fill="black"/>
<path opacity="0.2" d="M62.2917 35.2084H32.5V35.8855H62.2917V35.2084Z" fill="white"/>
<path opacity="0.1" d="M2.70834 56.8751V56.198L27.0833 58.4139V59.091L2.70834 56.8751Z" fill="black"/>
<path opacity="0.2" d="M27.0833 35.2084H2.70834V35.8855H27.0833V35.2084Z" fill="white"/>
<path d="M32.5 5.41671V29.7917H62.2917V2.70837L32.5 5.41671ZM2.70834 29.7917H27.0833V5.90915L2.70834 8.12504V29.7917ZM32.5 59.5834L62.2917 62.2917V35.2084H32.5V59.5834ZM2.70834 56.875L27.0833 59.0909V35.2084H2.70834V56.875Z" fill="url(#paint0_linear)"/>
<defs>
<linearGradient id="paint0_linear" x1="-0.269502" y1="14.511" x2="69.4189" y2="47.0073" gradientUnits="userSpaceOnUse">
<stop stop-color="white" stop-opacity="0.2"/>
<stop offset="1" stop-color="white" stop-opacity="0"/>
</linearGradient>
</defs>
</svg>
