<svg width="65" height="65" viewBox="0 0 65 65" fill="none" xmlns="http://www.w3.org/2000/svg">
<path fill-rule="evenodd" clip-rule="evenodd" d="M30.4348 30.6961C30.4348 30.6961 29.7902 30.567 29.8545 30.943C29.8545 30.943 30.9075 32.5122 31.8535 32.8129C31.8535 32.8129 32.3482 33.0279 32.8636 32.8129C32.8636 32.8129 33.9601 32.3619 34.8086 31.2229C34.8086 31.2229 35.1202 30.7714 34.6261 30.7606C34.6261 30.7606 31.5094 31.1474 30.4348 30.6961ZM54.5448 34.5646C55.399 34.6936 56.7694 35.5801 56.7694 35.5801C57.0593 35.7896 58.4294 36.3539 58.4294 36.3539C60.0431 36.9404 60.9668 36.7711 61.4645 36.516C61.5947 35.5226 61.6758 34.5139 61.7031 33.492C59.4858 34.8201 57.2101 33.415 57.2101 33.415C56.7374 33.2001 55.4151 32.4693 55.4151 32.4693C53.8997 31.5023 52.4814 31.6956 52.4814 31.6956C52.4814 31.5023 51.8368 30.1803 51.8368 30.1803C52.2671 29.8901 53.3197 29.9333 53.3197 29.9333C54.2655 29.9545 56.0709 31.0723 56.0709 31.0723C57.914 31.9979 58.3488 32.1224 58.3488 32.1224C59.9579 32.8143 61.1608 31.9603 61.6875 31.4566C61.044 15.891 48.2236 3.46899 32.5004 3.46899C16.7841 3.46899 3.96867 15.8792 3.31372 31.4337C3.82788 31.9339 5.04295 32.8245 6.67556 32.1223C6.67556 32.1223 7.11127 31.9978 8.95437 31.0722C8.95437 31.0722 10.7594 29.9543 11.7046 29.9331C11.7046 29.9331 12.7579 29.89 13.1876 30.1802C13.1876 30.1802 12.5431 31.502 12.5431 31.6955C12.5431 31.6955 11.1246 31.5021 9.60932 32.4692C9.60932 32.4692 8.28749 33.2 7.81509 33.4148C7.81509 33.4148 5.52156 34.8305 3.29633 33.4769C3.32349 34.4989 3.40373 35.5078 3.53335 36.5009C4.02427 36.7638 4.95116 36.9517 6.5952 36.3538C6.5952 36.3538 7.96566 35.7896 8.25511 35.58C8.25511 35.58 9.62557 34.6935 10.4798 34.5645C10.4798 34.5645 11.1084 34.4678 11.4628 34.5645L11.1731 36.2087C11.1731 36.2087 10.0768 36.261 9.27099 36.7508C9.27099 36.7508 8.18262 37.2869 7.64295 37.6592C7.64295 37.6592 5.61043 38.92 3.9024 38.6784C4.06211 39.4467 4.25368 40.2036 4.4728 40.9485C4.88933 41.0417 5.61843 41.0533 6.74044 40.5768C6.74044 40.5768 7.56233 40.2059 8.8033 39.3839C8.8033 39.3839 9.88316 38.8361 10.9148 38.9166L10.7537 40.4154C10.7537 40.4154 9.86704 40.3918 9.01264 41C9.01264 41 7.06188 42.5613 5.06554 42.7487C5.34141 43.4992 5.64864 44.235 5.98215 44.9557C6.38471 44.9657 7.13374 44.8477 8.06189 44.0583C8.06189 44.0583 9.06139 43.2685 9.43197 43.1558C9.43197 43.1558 10.1091 42.785 10.9149 42.9302L11.2536 44.3969C11.2536 44.3969 10.0286 44.6387 9.43197 45.1062C9.43197 45.1062 8.45659 45.8171 7.9974 46.0572C7.9974 46.0572 7.51879 46.4171 6.73574 46.4655C7.12142 47.1857 7.53681 47.8874 7.97937 48.5699C8.9738 47.8623 11.1743 46.4297 12.156 46.8472L11.6081 45.0095C11.6081 45.0095 13.0909 45.2997 14.7352 44.0101L16.1855 42.8966C16.1855 42.8966 15.9921 40.3759 19.1516 36.6159C19.1516 36.6159 20.2475 35.1124 19.5061 32.8237C19.5061 32.8237 16.5723 25.9248 21.4725 22.6689C21.4725 22.6689 18.3777 25.3845 20.5701 32.247C20.5701 32.247 21.9238 34.6935 20.1507 37.1112C20.1507 37.1112 17.6038 40.0163 17.3139 42.7708C17.3139 42.7708 17.1851 44.6549 18.8938 47.1696C18.8938 47.1696 16.4111 49.6841 14.7027 50.1353C14.7027 50.1353 13.6711 50.4254 13.1874 50.1353L12.6071 48.4267C12.6071 48.4267 11.5756 48.2977 10.5762 48.8458C10.5762 48.8458 9.5268 49.4559 8.89661 49.8996C9.3299 50.4931 9.78503 51.0692 10.2608 51.6273C10.7866 51.2233 12.0475 50.3626 12.9939 50.5868L13.8002 51.7311C13.8002 51.7311 12.0701 51.7342 11.2168 52.6948C11.7856 53.2997 12.3799 53.8806 12.9986 54.435C13.3605 54.1308 13.9374 53.749 14.5733 53.7299L15.5408 54.8097C15.5408 54.8097 14.8108 55.1356 14.3776 55.5987C15.3334 56.3558 16.3372 57.055 17.3847 57.6891C18.1599 55.573 19.7319 53.5848 19.7319 53.5848C20.8603 52.1018 20.7311 49.6519 20.7311 49.6519C22.472 51.7474 19.8605 54.9308 19.8605 54.9308C18.9866 55.5419 18.5412 57.1163 18.3281 58.2351C18.8476 58.5236 19.3765 58.7985 19.9145 59.0558C20.1353 58.0318 20.7328 56.4253 22.2673 54.1653C22.2673 54.1653 24.5355 51.8119 22.9234 49.5553C22.9234 49.5553 22.7301 48.6847 21.1506 46.9117C21.1506 46.9117 17.8253 43.6555 19.794 40.4963C19.794 40.4963 21.2149 38.2073 22.4077 37.0792C22.4077 37.0792 23.8904 35.0803 22.6008 32.5335C22.6008 32.5335 18.7322 26.4408 24.277 21.347C24.277 21.347 20.1507 26.287 23.8583 32.247C23.8583 32.247 25.5021 35.1124 23.1489 37.6271C23.1489 37.6271 18.8614 42.237 21.4725 45.5255C21.4725 45.5255 22.7623 47.0728 22.9878 47.3309C22.9878 47.3309 26.2116 50.4257 23.8583 54.1974C23.8583 54.1974 21.3456 57.2545 21.5194 59.7631C22.255 60.0616 23.0044 60.3328 23.7685 60.5714C23.6453 59.4779 23.7471 57.6612 25.0831 55.5191C25.0831 55.5191 28.0488 51.6185 26.3406 49.0395C26.3406 49.0395 25.7279 47.7177 24.3737 46.3313C24.3737 46.3313 21.0534 43.1719 24.1159 39.1746C24.1159 39.1746 27.4366 36.0797 25.9856 33.1139C25.9856 33.1139 21.0213 24.8932 26.953 20.7991C26.953 20.7991 22.8592 24.861 26.1792 30.8574C26.1792 30.8574 28.8875 35.7252 26.6304 37.724C26.6304 37.724 22.7758 42.0438 24.8805 44.8485C24.8805 44.8485 26.3084 46.7184 26.5986 47.0408C26.5986 47.0408 29.6609 50.2324 27.3725 54.0686C27.3725 54.0686 25.7604 56.8735 25.6957 57.0989C25.6957 57.0989 24.9285 58.3378 25.4292 61.0354C26.1961 61.2263 26.9745 61.3868 27.7643 61.515C27.3343 60.4459 27.0499 58.9469 27.6302 57.2278C27.6302 57.2278 28.7262 54.8205 29.1774 54.2621C29.1774 54.2621 31.1547 51.081 29.9082 48.9962C29.9082 48.9962 29.8439 48.4804 28.1028 46.2239C28.1028 46.2239 24.9224 43.1939 26.77 40.6575C26.77 40.6575 28.9415 37.6251 29.0701 36.6161C29.0701 36.6161 29.3707 35.2631 30.9184 36.4666C30.9184 36.4666 32.2076 37.0624 33.8623 36.2917C33.8623 36.2917 35.0234 35.4998 35.5178 36.3269C35.5178 36.3269 36.119 37.7564 37.8172 39.8411C37.8172 39.8411 40.3317 42.5057 37.3439 45.8155C37.3439 45.8155 33.5831 49.19 35.0017 52.3923C35.0017 52.3923 37.805 57.1504 37.8387 59.2912C37.8387 59.2912 37.8093 60.4124 37.3869 61.4899C38.1334 61.3644 38.8702 61.2108 39.5959 61.0293C40.0947 58.3356 39.3287 57.0989 39.3287 57.0989C39.264 56.8735 37.6521 54.0686 37.6521 54.0686C35.3634 50.2323 38.426 47.0408 38.426 47.0408C38.7161 46.7184 40.144 44.8485 40.144 44.8485C42.2486 42.0438 38.3942 37.724 38.3942 37.724C36.1369 35.7252 38.8455 30.8574 38.8455 30.8574C42.1658 24.8611 38.0716 20.7991 38.0716 20.7991C44.0032 24.8932 39.0388 33.1139 39.0388 33.1139C37.5879 36.0797 40.9085 39.1746 40.9085 39.1746C43.9708 43.1719 40.6509 46.3313 40.6509 46.3313C39.2967 47.7177 38.6839 49.0395 38.6839 49.0395C36.9756 51.6185 39.9416 55.5191 39.9416 55.5191C41.2741 57.6556 41.3787 59.4688 41.2566 60.5635C42.0206 60.3237 42.7701 60.052 43.5058 59.7529C43.672 57.2463 41.1663 54.1973 41.1663 54.1973C38.8129 50.4255 42.0368 47.3308 42.0368 47.3308C42.262 47.0728 43.552 45.5254 43.552 45.5254C46.1631 42.2369 41.8757 37.627 41.8757 37.627C39.5224 35.1123 41.1663 32.2469 41.1663 32.2469C44.8737 26.2869 40.7471 21.3469 40.7471 21.3469C46.2922 26.4407 42.4238 32.5334 42.4238 32.5334C41.1337 35.0802 42.6171 37.0791 42.6171 37.0791C43.8097 38.2072 45.23 40.4961 45.23 40.4961C47.1993 43.6554 43.874 46.9116 43.874 46.9116C42.2944 48.6846 42.1009 49.5551 42.1009 49.5551C40.489 51.8116 42.7572 54.1652 42.7572 54.1652C44.2863 56.4176 44.8853 58.0209 45.1077 59.045C45.6457 58.7872 46.1746 58.5122 46.6941 58.2225C46.4798 57.1048 46.0345 55.5391 45.1638 54.9307C45.1638 54.9307 42.5523 51.7472 44.2933 49.6517C44.2933 49.6517 44.1642 52.1018 45.2924 53.5846C45.2924 53.5846 46.8586 55.5654 47.6353 57.6775C48.6802 57.0431 49.6821 56.344 50.6356 55.5881C50.2012 55.1305 49.483 54.8096 49.483 54.8096L50.4504 53.7297C51.0794 53.7488 51.6498 54.122 52.0131 54.4249C52.6317 53.8687 53.2266 53.2869 53.7956 52.6812C52.938 51.7342 51.2242 51.7311 51.2242 51.7311L52.0299 50.5868C52.9671 50.3646 54.2132 51.2072 54.7481 51.6162C55.2237 51.0581 55.6783 50.4819 56.1111 49.8885C55.4795 49.4456 54.4476 48.8458 54.4476 48.8458C53.4483 48.2978 52.4164 48.4267 52.4164 48.4267L51.8365 50.1353C51.3528 50.4254 50.3218 50.1353 50.3218 50.1353C48.6131 49.684 46.1306 47.1696 46.1306 47.1696C47.8392 44.6547 47.7106 42.7708 47.7106 42.7708C47.4204 40.0163 44.8735 37.1112 44.8735 37.1112C43.1004 34.6934 44.4541 32.247 44.4541 32.247C46.6465 25.3844 43.5518 22.6689 43.5518 22.6689C48.4519 25.9248 45.5183 32.8237 45.5183 32.8237C44.7767 35.1124 45.8726 36.6159 45.8726 36.6159C49.0317 40.3758 48.8382 42.8966 48.8382 42.8966L50.289 44.0101C51.9329 45.2997 53.4158 45.0095 53.4158 45.0095L52.8678 46.8472C53.8444 46.432 56.0257 47.8465 57.0282 48.5579C57.4686 47.879 57.881 47.1806 58.265 46.4643C57.4957 46.4105 57.0266 46.0573 57.0266 46.0573C56.567 45.8171 55.592 45.1063 55.592 45.1063C54.9953 44.6389 53.7702 44.397 53.7702 44.397L54.1089 42.9303C54.9148 42.7851 55.592 43.1559 55.592 43.1559C55.9626 43.2688 56.9622 44.0584 56.9622 44.0584C57.8716 44.8322 58.6097 44.9604 59.0173 44.956C59.3516 44.235 59.6592 43.4987 59.9349 42.7473C57.9466 42.5496 56.0111 41.0001 56.0111 41.0001C55.1569 40.3919 54.2703 40.4155 54.2703 40.4155L54.1091 38.9167C55.1408 38.8361 56.2205 39.384 56.2205 39.384C57.4616 40.2061 58.284 40.5769 58.284 40.5769C59.3812 41.0431 60.104 41.0427 60.5249 40.9549C60.7445 40.2094 60.9363 39.4516 61.0968 38.6826C59.3939 38.9082 57.381 37.6594 57.381 37.6594C56.8413 37.2869 55.753 36.7509 55.753 36.7509C54.9472 36.2612 53.8511 36.2088 53.8511 36.2088L53.5613 34.5646C53.9162 34.4679 54.5448 34.5646 54.5448 34.5646ZM14.6063 27.698C12.4461 27.2466 9.15813 28.8909 9.15813 28.8909C5.70907 30.8251 4.41897 29.2133 4.41897 29.2133L7.09514 25.0867C9.86716 20.6703 8.93241 18.0267 8.93241 18.0267C8.83554 16.8985 9.6417 17.3499 9.6417 17.3499C12.7364 19.2197 12.7691 22.8626 12.7691 22.8626C18.3781 19.7354 20.151 22.1854 20.151 22.1854C17.7336 23.3137 14.6063 27.698 14.6063 27.698ZM27.05 24.6462C27.05 24.6462 27.673 23.7222 29.3494 24.4957C29.3494 24.4957 30.381 25.0758 30.3166 25.5703C30.3166 25.5703 30.2951 26.0001 29.6074 25.5703C29.6074 25.5703 28.4257 25.0437 27.8025 25.5488C27.8025 25.5488 27.5123 26.054 26.9859 25.5597C26.9858 25.5597 26.6204 25.0867 27.05 24.6462ZM37.8819 23.4642C37.8819 23.4642 35.3027 22.841 34.1101 23.6898C34.1101 23.6898 32.5416 24.5174 33.3582 27.3865C33.3582 27.3865 33.4724 27.9585 33.9677 27.2707C33.9752 27.2595 33.9836 27.2478 33.9919 27.2359C34.5075 26.4945 34.7872 26.4408 35.3676 26.7952C35.3676 26.7952 36.4095 27.0854 37.2049 26.7739C37.2049 26.7739 37.4197 26.2688 37.7852 26.8491C37.7852 26.8491 37.9091 27.0855 38.0245 27.193C38.0245 27.193 38.5111 27.9238 38.0245 29.1272C38.0245 29.1272 37.7744 29.6965 37.3664 30.9862C37.3664 30.9862 36.3128 33.651 33.9919 34.8656C33.9919 34.8656 32.6488 35.5531 30.7894 34.8656C30.7894 34.8656 28.5328 33.834 27.5333 31.4699C27.5333 31.4699 26.2335 28.914 26.5346 27.4032C26.5346 27.4032 26.889 26.2368 27.7059 26.5269C27.7059 26.5269 28.4146 27.0211 29.5755 26.6236C29.5755 26.6236 30.4246 26.2368 30.6712 26.8492C30.6712 26.8492 30.9512 27.4616 31.2414 26.7525C31.2414 26.7525 31.6491 25.8498 31.2836 24.4851C31.2836 24.4851 31.1445 23.303 29.0061 23.2493C29.0061 23.2493 27.985 23.2709 27.6085 23.3678C27.6085 23.3678 26.5559 23.7223 27.2651 22.2822C27.2651 22.2822 28.366 19.6386 32.4792 19.6386C32.4792 19.6386 36.6624 19.4241 38.0246 22.5616C38.0245 22.5615 38.5487 23.6575 37.8819 23.4642ZM37.8796 25.5597C37.3533 26.0541 37.0628 25.5488 37.0628 25.5488C36.4396 25.0437 35.2574 25.5703 35.2574 25.5703C34.5698 26.0001 34.548 25.5703 34.548 25.5703C34.4835 25.0758 35.515 24.4957 35.515 24.4957C37.1919 23.7221 37.8151 24.6462 37.8151 24.6462C38.245 25.0867 37.8796 25.5597 37.8796 25.5597ZM43.5524 20.9926C43.5808 21.6049 42.782 21.1213 42.782 21.1213C31.6601 15.8344 22.5155 21.1213 22.5155 21.1213C21.2528 21.9113 21.3923 20.5089 21.3923 20.5089C20.6991 17.5914 19.1711 15.7701 19.1711 15.7701C18.1749 14.8675 19.2806 15.0447 19.2806 15.0447C21.5696 15.3025 23.4395 16.5115 23.4395 16.5115C23.7619 15.0286 22.2629 12.9653 22.2629 12.9653C21.6826 12.2078 22.9881 12.385 22.9881 12.385C25.7051 13.3462 27.5835 14.5771 28.6933 15.4526L30.0805 11.7939L26.9205 9.02434L31.0049 8.91427L32.4449 5.3465L33.9061 8.82819L38.0313 9.02192L34.8731 11.8371L36.252 15.1411C38.9267 13.0806 42.1209 12.3044 42.1209 12.3044C43.2014 12.1432 42.5405 12.9975 42.5405 12.9975C41.3957 15.0285 41.6537 16.3178 41.6537 16.3178C43.6363 15.2379 45.5866 14.9478 45.5866 14.9478C46.7958 14.7061 45.8537 15.6085 45.8537 15.6085C43.4932 18.2684 43.5524 20.9926 43.5524 20.9926ZM50.4189 27.698C50.4189 27.698 47.2918 23.3137 44.874 22.1853C44.874 22.1853 46.647 19.7352 52.256 22.8625C52.256 22.8625 52.2879 19.2196 55.3826 17.3498C55.3826 17.3498 56.1891 16.8984 56.0921 18.0266C56.0921 18.0266 55.1573 20.6701 57.9295 25.0866L60.6055 29.2132C60.6055 29.2132 59.3162 30.825 55.8663 28.8907C55.8665 28.8907 52.5781 27.2466 50.4189 27.698ZM29.3484 16.0026C29.7306 16.3458 29.9195 16.5599 29.9195 16.5599C31.4666 16.2377 34.8197 16.447 34.8197 16.447C34.9765 16.2751 35.1402 16.1105 35.3074 15.9508L32.445 13.5995L29.3484 16.0026ZM31.2626 29.052C30.8756 29.4602 31.2626 29.6645 31.2626 29.6645C32.0683 30.0083 33.3796 29.6645 33.3796 29.6645C34.11 29.1917 33.7556 28.9983 33.7556 28.9983C33.3901 28.622 32.5002 28.6222 32.5002 28.6222C31.8899 28.5792 31.2626 29.052 31.2626 29.052Z" fill="#6C63FF"/>
</svg>
