<svg width="65" height="65" viewBox="0 0 65 65" fill="none" xmlns="http://www.w3.org/2000/svg">
<path d="M60.579 17.2724C58.5026 18.1953 56.2681 18.8179 53.9234 19.0965C56.3174 17.6633 58.1529 15.3932 59.0186 12.6851C56.7794 14.0139 54.3006 14.9782 51.6602 15.4987C49.5471 13.2469 46.5352 11.839 43.2022 11.839C36.8035 11.839 31.6155 17.027 31.6155 23.4269C31.6155 24.3338 31.7175 25.2178 31.9158 26.0674C22.285 25.5835 13.7457 20.9711 8.03027 13.9601C7.03279 15.6707 6.46182 17.661 6.46182 19.7867C6.46182 23.8064 8.50723 27.3538 11.6166 29.4313C9.71796 29.3705 7.93052 28.8489 6.36781 27.9809C6.36666 28.0291 6.36666 28.0784 6.36666 28.1277C6.36666 33.7411 10.3612 38.4235 15.6627 39.4898C14.6904 39.7535 13.6666 39.8956 12.6095 39.8956C11.862 39.8956 11.1362 39.8234 10.4288 39.687C11.9044 44.2903 16.1832 47.6416 21.2532 47.7344C17.2873 50.8427 12.2919 52.6954 6.86196 52.6954C5.92754 52.6954 5.00459 52.6404 4.09769 52.5326C9.22724 55.822 15.3176 57.739 21.8608 57.739C43.1759 57.739 54.8303 40.0825 54.8303 24.7695C54.8303 24.2673 54.82 23.7663 54.7982 23.2687C57.0615 21.6383 59.0266 19.5964 60.579 17.2724Z" fill="#6C63FF"/>
</svg>
